<svg width="300" height="147" viewBox="0 0 920 147" fill="none" xmlns="http://www.w3.org/2000/svg">
<path d="M89.152 109C86.944 109 85.024 108.184 83.392 106.552C81.76 104.92 80.944 103 80.944 100.792V12.088C80.944 9.87999 81.76 7.95999 83.392 6.32799C85.024 4.696 86.944 3.88 89.152 3.88H97.36C99.856 3.88 102.112 4.552 104.128 5.896C106.144 7.24 107.632 9.064 108.592 11.368L130.912 65.656C130.912 65.752 130.96 65.8 131.056 65.8C131.152 65.8 131.2 65.752 131.2 65.656L153.52 11.368C154.48 9.064 155.968 7.24 157.984 5.896C160 4.552 162.256 3.88 164.752 3.88H173.536C175.744 3.88 177.664 4.696 179.296 6.32799C180.928 7.95999 181.744 9.87999 181.744 12.088V100.792C181.744 103 180.928 104.92 179.296 106.552C177.664 108.184 175.744 109 173.536 109H166.624C164.416 109 162.496 108.184 160.864 106.552C159.328 104.92 158.56 103 158.56 100.792V44.776C158.56 44.68 158.512 44.632 158.416 44.632C158.224 44.632 158.128 44.68 158.128 44.776L144.304 77.464C143.344 79.768 141.808 81.592 139.696 82.936C137.68 84.28 135.424 84.952 132.928 84.952H129.184C126.688 84.952 124.384 84.28 122.272 82.936C120.256 81.592 118.768 79.768 117.808 77.464L103.984 44.776C103.984 44.68 103.888 44.632 103.696 44.632C103.6 44.632 103.552 44.68 103.552 44.776V100.792C103.552 103 102.736 104.92 101.104 106.552C99.568 108.184 97.696 109 95.488 109H89.152Z" fill="#606C38"/>
<path d="M242.008 106C239.8 106 237.88 105.184 236.248 103.552C234.712 101.92 233.944 100 233.944 97.792V9.08799C233.944 6.87999 234.712 4.95999 236.248 3.32799C237.88 1.696 239.8 0.879997 242.008 0.879997H292.984C295.192 0.879997 297.064 1.696 298.6 3.32799C300.232 4.95999 301.048 6.87999 301.048 9.08799V12.4C301.048 14.608 300.232 16.528 298.6 18.16C297.064 19.792 295.192 20.608 292.984 20.608H259.576C258.808 20.608 258.424 20.992 258.424 21.76V40.768C258.424 41.632 258.808 42.064 259.576 42.064H290.104C292.312 42.064 294.184 42.88 295.72 44.512C297.352 46.144 298.168 48.064 298.168 50.272V52.432C298.168 54.64 297.352 56.56 295.72 58.192C294.184 59.824 292.312 60.64 290.104 60.64H259.576C258.808 60.64 258.424 61.024 258.424 61.792V85.12C258.424 85.888 258.808 86.272 259.576 86.272H292.984C295.192 86.272 297.064 87.088 298.6 88.72C300.232 90.352 301.048 92.272 301.048 94.48V97.792C301.048 100 300.232 101.92 298.6 103.552C297.064 105.184 295.192 106 292.984 106H242.008Z" fill="#606C38"/>
<path d="M387.384 22.192L376.872 63.52C376.776 63.808 376.824 64.096 377.016 64.384C377.304 64.576 377.592 64.672 377.88 64.672H397.176C397.464 64.672 397.704 64.576 397.896 64.384C398.184 64.096 398.28 63.808 398.184 63.52L387.672 22.192C387.672 22.096 387.624 22.048 387.528 22.048C387.432 22.048 387.384 22.096 387.384 22.192ZM348.936 106C346.92 106 345.288 105.184 344.04 103.552C342.888 101.92 342.648 100.144 343.32 98.224L372.408 8.65599C373.176 6.35199 374.52 4.47999 376.44 3.04C378.456 1.6 380.664 0.879997 383.064 0.879997H392.568C395.064 0.879997 397.32 1.6 399.336 3.04C401.352 4.47999 402.696 6.35199 403.368 8.65599L432.312 98.224C432.984 100.144 432.696 101.92 431.448 103.552C430.296 105.184 428.712 106 426.696 106H417.048C414.648 106 412.488 105.28 410.568 103.84C408.648 102.304 407.4 100.384 406.824 98.08L403.368 84.4C403.272 83.632 402.792 83.248 401.928 83.248H373.128C372.36 83.248 371.88 83.632 371.688 84.4L368.232 98.08C367.656 100.384 366.408 102.304 364.488 103.84C362.568 105.28 360.408 106 358.008 106H348.936Z" fill="#606C38"/>
<path d="M618.592 106C616.384 106 614.464 105.184 612.832 103.552C611.2 101.92 610.384 100 610.384 97.792V86.848C610.384 84.64 611.2 82.72 612.832 81.088C614.464 79.456 616.384 78.64 618.592 78.64H629.536C631.744 78.64 633.664 79.456 635.296 81.088C636.928 82.72 637.744 84.64 637.744 86.848V97.792C637.744 100 636.928 101.92 635.296 103.552C633.664 105.184 631.744 106 629.536 106H618.592Z" fill="#606C38"/>
<path d="M696.152 106C693.944 106 692.024 105.184 690.392 103.552C688.76 101.92 687.944 100 687.944 97.792V9.08799C687.944 6.87999 688.76 4.95999 690.392 3.32799C692.024 1.696 693.944 0.879997 696.152 0.879997H705.08C707.288 0.879997 709.16 1.696 710.696 3.32799C712.328 4.95999 713.144 6.87999 713.144 9.08799V84.544C713.144 85.312 713.576 85.696 714.44 85.696H749.432C751.64 85.696 753.56 86.512 755.192 88.144C756.824 89.776 757.64 91.696 757.64 93.904V97.792C757.64 100 756.824 101.92 755.192 103.552C753.56 105.184 751.64 106 749.432 106H696.152Z" fill="#606C38"/>
<path d="M825.704 64.528L795.752 8.08C794.888 6.448 794.936 4.86399 795.896 3.32799C796.856 1.696 798.296 0.879997 800.216 0.879997H811.88C814.376 0.879997 816.632 1.552 818.648 2.896C820.664 4.24 822.152 6.064 823.112 8.368L838.952 45.808C838.952 45.904 839 45.952 839.096 45.952C839.192 45.952 839.24 45.904 839.24 45.808L855.08 8.368C856.04 6.064 857.528 4.24 859.544 2.896C861.56 1.552 863.816 0.879997 866.312 0.879997H877.4C879.224 0.879997 880.616 1.696 881.576 3.32799C882.632 4.86399 882.728 6.448 881.864 8.08L851.912 64.528C851.528 65.2 851.336 66.016 851.336 66.976V97.792C851.336 100 850.52 101.92 848.888 103.552C847.352 105.184 845.48 106 843.272 106H834.344C832.136 106 830.216 105.184 828.584 103.552C826.952 101.92 826.136 100 826.136 97.792V66.976C826.136 65.824 825.992 65.008 825.704 64.528Z" fill="#606C38"/>
<path d="M504.152 106C501.944 106 500.024 105.184 498.392 103.552C496.76 101.92 495.944 100 495.944 97.792V9.08799C495.944 6.87999 496.76 4.95999 498.392 3.32799C500.024 1.696 501.944 0.879997 504.152 0.879997H513.08C515.288 0.879997 517.16 1.696 518.696 3.32799C520.328 4.95999 521.144 6.87999 521.144 9.08799V84.544C521.144 85.312 521.576 85.696 522.44 85.696H557.432C559.64 85.696 561.56 86.512 563.192 88.144C564.824 89.776 565.64 91.696 565.64 93.904V97.792C565.64 100 564.824 101.92 563.192 103.552C561.56 105.184 559.64 106 557.432 106H504.152Z" fill="#606C38"/>
<path d="M802.571 128.813C802.953 128.948 803.347 129.043 803.746 129.098L807.139 129.703L809.588 130.112C810.498 130.236 811.475 130.307 812.534 130.432C814.652 130.628 817.052 130.966 819.716 131.001L823.904 131.143C825.36 131.143 826.883 131.143 828.455 131.143C831.599 131.143 834.942 130.805 838.385 130.503C853.709 128.913 868.669 124.528 882.622 117.537C885.783 115.865 888.828 114.318 891.543 112.592C892.9 111.756 894.24 110.991 895.481 110.156L899.04 107.648C901.323 106.154 903.227 104.535 904.948 103.219C905.808 102.543 906.603 101.938 907.331 101.334L909.251 99.5549L911.882 97.1893C912.197 96.926 912.49 96.6345 912.759 96.3178C912.401 96.514 912.067 96.7591 911.766 97.0471L909.036 99.2703L907.083 100.907C906.355 101.494 905.544 102.081 904.666 102.685C902.929 103.966 901.009 105.531 898.709 106.99L895.167 109.355C893.926 110.173 892.585 110.903 891.228 111.721C888.514 113.41 885.485 114.922 882.324 116.576C875.357 119.947 868.166 122.753 860.81 124.972C853.445 127.081 845.944 128.591 838.368 129.489C834.876 129.809 831.55 130.183 828.438 130.201C826.866 130.201 825.36 130.361 823.92 130.325L819.733 130.236C817.085 130.236 814.685 129.952 812.567 129.809C811.524 129.809 810.531 129.667 809.638 129.56L807.188 129.24L803.779 128.796C803.376 128.769 802.973 128.775 802.571 128.813Z" fill="#455A64"/>
<path d="M873.04 121.805C885.452 120.027 901.671 125.185 910.972 134.256C897.782 132.351 884.969 128.146 873.04 121.805Z" fill="#455A64"/>
<path d="M872.411 121.966C867.86 109.408 874.579 91.7289 874.579 91.7289C875.886 89.3455 875.307 108.039 872.411 121.966Z" fill="#455A64"/>
<path d="M892.006 112.005C888.696 102.792 893.512 89.8435 893.512 89.8435C894.439 88.0649 894.058 101.814 892.006 112.005Z" fill="#455A64"/>
<path d="M854.868 126.43C851.558 117.217 856.374 104.268 856.374 104.268C857.318 102.49 856.937 116.238 854.868 126.43Z" fill="#455A64"/>
<path d="M891.625 112.201C900.877 110.885 912.941 114.727 919.843 121.45C910.031 120.04 900.499 116.916 891.625 112.201Z" fill="#455A64"/>
<path d="M852.982 127.835C866.106 128.031 882.159 136.035 890.516 146.902C877.122 142.786 864.443 136.346 852.982 127.835Z" fill="#455A64"/>
<path d="M53.651 50.965C48.9064 48.0329 43.5936 46.4085 38.2765 46.2645C32.9594 46.1204 27.8363 47.462 23.4507 50.1467C19.0651 52.8315 15.5806 56.7593 13.367 61.5135C11.1534 66.2676 10.2933 71.6708 10.8779 77.1496C12.0911 86.4292 16.8055 95.1725 23.9865 101.461C31.1675 107.641 39.7443 111.717 48.6906 113.203C71.9614 117.485 96.0927 105.21 104.426 83.6564C107.563 75.7207 108.49 66.293 105.361 57.7163C103.539 52.7274 100.437 48.2353 96.4076 44.7474C92.3777 41.2596 87.5797 38.9148 82.5555 37.9782C77.5313 37.0415 72.481 37.5501 67.9752 39.4466C63.4694 41.3432 59.6875 44.552 57.0567 48.7107" fill="#BC6C25"/>
<path d="M54.796 50.1225C55.378 47.7121 56.6649 45.6202 58.4277 44.2188C60.1906 42.8174 62.3151 42.1975 64.4233 42.4694L58.7103 50.3271C60.2395 50.5888 61.6808 51.3258 62.8864 52.4624C64.0921 53.599 65.0188 55.0946 65.5718 56.7959C65.8185 57.606 65.8875 58.6775 65.2301 59.16C64.998 59.2477 64.7529 59.2751 64.5114 59.2405C64.2699 59.2058 64.0379 59.11 63.8311 58.9594L57.0191 55.5535C56.505 60.0563 55.0634 64.3461 52.8206 68.0466C51.2936 64.0768 50.4589 59.7823 50.3659 55.418L42.7657 59.2944C43.3883 56.7321 44.6476 54.4463 46.3805 52.7328C44.1304 52.2078 41.9822 51.2014 40.0418 49.7632C39.4571 49.3258 38.8275 48.5874 39.0892 47.8759C39.351 47.1643 39.9242 47.1507 40.4501 47.0991C45.4493 46.5854 50.4578 47.8618 54.8215 50.7615" fill="#455A64"/>
<path d="M54.1831 52.9596C52.9638 44.4109 53.6328 35.6737 56.136 27.4541C54.2659 27.0095 51.9655 26.7071 50.7408 28.3079C50.1349 29.3152 49.8556 30.5095 49.9464 31.7051C49.8562 39.7963 51.286 47.8239 54.15 55.3074" fill="#455A64"/>
</svg>

