<svg width="430" height="464" viewBox="0 0 430 464" fill="none" xmlns="http://www.w3.org/2000/svg">
<path d="M321.283 216.566C381.086 216.566 429.566 168.086 429.566 108.283C429.566 48.4799 381.086 0 321.283 0C261.48 0 213 48.4799 213 108.283C213 168.086 261.48 216.566 321.283 216.566Z" fill="#E0E4CF"/>
<path d="M112 301C149.555 301 180 270.555 180 233C180 195.445 149.555 165 112 165C74.4446 165 44 195.445 44 233C44 270.555 74.4446 301 112 301Z" fill="#E0E4CF"/>
<path d="M51 464C79.1665 464 102 441.167 102 413C102 384.833 79.1665 362 51 362C22.8335 362 0 384.833 0 413C0 441.167 22.8335 464 51 464Z" fill="#E0E4CF"/>
</svg>

