<svg width="623" height="623" viewBox="0 0 623 623" fill="none" xmlns="http://www.w3.org/2000/svg">
<path d="M330.894 181.587C330.894 181.587 326.323 185.716 326.78 189.846C327.237 193.976 366.095 267.916 370.209 273.284C374.323 278.653 386.209 280.305 391.713 277.414C397.216 274.523 418.685 253.874 418.685 253.874L417.612 147.992C417.612 147.992 398.57 197.232 393.084 205.174C387.598 213.116 384.838 217.166 384.838 217.166C384.838 217.166 372.53 185.764 369.295 179.569C367.03 175.582 363.538 172.273 359.238 170.039L330.894 181.587Z" fill="#AEB791" stroke="#263238" stroke-linecap="round" stroke-linejoin="round"/>
<path d="M427.089 594.457C427.089 594.457 399.643 603.829 389.269 607.165C378.895 610.5 379.51 618.744 380.724 620.396L381.954 621.984H480.171C481.626 617.278 481.411 612.279 479.556 607.689C476.514 599.461 427.089 594.457 427.089 594.457Z" fill="#283618" stroke="#263238" stroke-linecap="round" stroke-linejoin="round"/>
<path d="M481.103 617.648H380.091C380.031 618.603 380.249 619.556 380.724 620.412L381.954 622H480.171C480.678 620.589 480.991 619.128 481.103 617.648Z" fill="white" stroke="#263238" stroke-linecap="round" stroke-linejoin="round"/>
<path d="M406.342 291.932C406.342 291.932 399.643 352.005 399.643 382.868C399.643 413.73 411.845 474.915 415.467 493.658C419.089 512.401 431.291 571.362 431.291 575.762C431.291 580.162 431.291 585.689 427.634 587.897C426.404 588.581 425.409 589.563 424.763 590.73C424.117 591.898 423.845 593.205 423.977 594.505V597.809C423.977 597.809 453.252 611.04 466.07 611.596C471.752 612.002 477.461 612.002 483.143 611.596C483.143 611.596 481.93 586.785 481.93 576.318C481.93 565.85 482.545 490.894 483.143 479.315C483.741 467.735 486.202 384.52 488.646 361.377C491.09 338.234 498.405 298.556 498.405 298.556L408.733 285.324L406.342 291.932Z" fill="#606C38" stroke="#263238" stroke-linecap="round" stroke-linejoin="round"/>
<path d="M492.374 594.457C492.374 594.457 464.91 603.829 454.553 607.165C444.197 610.5 444.777 618.744 446.008 620.396L447.221 621.984H545.438C546.894 617.279 546.685 612.281 544.841 607.689C541.781 599.461 492.374 594.457 492.374 594.457Z" fill="#283618" stroke="#263238" stroke-linecap="round" stroke-linejoin="round"/>
<path d="M546.3 617.648H445.358C445.31 618.604 445.534 619.555 446.008 620.412L447.221 622H545.438C545.931 620.589 546.22 619.126 546.3 617.648Z" fill="white" stroke="#263238" stroke-linecap="round" stroke-linejoin="round"/>
<path d="M458.808 299.096C458.808 299.096 459.424 383.423 458.808 408.218C458.193 433.013 474.633 495.85 479.556 510.733C484.479 525.616 492.971 583.481 493.622 586.245C494.273 589.009 484.479 591.757 484.479 597.809C484.479 603.861 511.31 603.876 511.31 603.876C511.31 603.876 536.33 610.484 538.774 610.484C541.28 610.761 543.738 611.321 546.089 612.152C548.542 604.432 549.977 596.477 550.361 588.453C550.464 579.308 549.023 570.203 546.089 561.451C546.089 561.451 549.148 512.957 546.704 484.302C544.26 455.648 537.544 420.925 537.544 410.442C537.544 399.959 544.26 380.691 547.32 359.185C550.379 337.678 551.575 306.275 551.575 299.668C551.575 293.06 460.145 291.408 460.145 291.408L458.808 299.096Z" fill="#606C38" stroke="#263238" stroke-linecap="round" stroke-linejoin="round"/>
<path d="M482 127.708C482 127.708 436.848 134.872 428.918 135.968C420.988 137.064 416.047 148.119 414.289 157.459C412.531 166.799 402.087 288.628 406.342 291.932C410.597 295.236 525.306 306.228 538.124 306.815C550.942 307.403 555.214 307.927 556.428 299.652C557.641 291.376 576.278 173.089 579.795 162.303C585.879 143.576 530.81 133.712 517.992 131.012C505.174 128.312 482 127.708 482 127.708Z" fill="#AEB791" stroke="#263238" stroke-linecap="round" stroke-linejoin="round"/>
<path d="M542.643 136.762C542.643 136.762 520.4 197.121 516.743 205.968C513.086 214.816 513.068 216.976 513.068 216.976L438.043 202.68C438.043 202.68 445.973 168.514 449.015 159.143C452.057 149.771 459.336 131.298 459.336 131.298L453.903 132.14C453.903 132.14 436.215 183.397 431.942 197.169C427.669 210.94 407.572 255.018 406.342 268.837C405.111 282.656 399.027 333.866 397.199 368.048C395.37 402.23 397.814 438.033 397.814 438.033C397.814 438.033 469.182 450.152 490.545 449.612C511.908 449.072 525.306 449.056 525.306 449.056C525.306 449.056 523.548 383.471 525.921 362.536C528.295 341.601 536.295 303.003 536.295 303.003L555.812 301.907L556.427 299.699L532.638 298.111C532.638 298.111 519.785 221.948 519.785 219.184V214.832L546.704 138.287L542.643 136.762Z" fill="#283618" stroke="#263238" stroke-linecap="round" stroke-linejoin="round"/>
<path d="M571.162 348.781C571.162 348.781 557.096 366.968 556.058 370.002C555.021 373.036 558.291 385.679 558.291 389.714C558.291 393.748 563.882 393.764 563.882 393.764C563.882 393.764 561.087 400.324 564.445 402.866C567.803 405.407 582.344 404.883 585.14 400.324C587.936 395.765 599.206 380.12 599.206 372.527C598.887 366.233 597.951 359.977 596.41 353.832L571.162 348.781Z" fill="#FFB79A" stroke="#263238" stroke-linecap="round" stroke-linejoin="round"/>
<path d="M563.883 393.764C563.883 393.764 568.366 390.222 568.366 385.679C568.366 381.136 572.832 373.544 572.832 373.544" stroke="#263238" stroke-linecap="round" stroke-linejoin="round"/>
<path d="M572.287 337.138C571.724 338.647 567.804 349.273 571.162 352.307C574.52 355.341 595.215 358.359 597.448 356.341C599.681 354.324 603.602 342.697 603.602 342.697L572.287 337.138Z" fill="#AEB791" stroke="#263238" stroke-linecap="round" stroke-linejoin="round"/>
<path d="M548.216 219.898L570.599 266.391C570.599 266.391 563.32 332.611 567.241 338.17C571.162 343.73 603.057 346.255 608.648 342.713C614.239 339.171 618.16 326.543 620.393 303.797C622.626 281.052 610.318 217.373 606.96 206.747C603.602 196.12 581.325 153.678 576.19 150.152C571.056 146.626 561.65 147.611 558.854 148.564" fill="#AEB791"/>
<path d="M548.216 219.898L570.599 266.391C570.599 266.391 563.32 332.611 567.241 338.17C571.162 343.73 603.057 346.255 608.648 342.713C614.239 339.171 618.16 326.543 620.393 303.797C622.626 281.052 610.318 217.373 606.96 206.747C603.602 196.12 581.325 153.678 576.19 150.152C571.056 146.626 561.65 147.611 558.854 148.564" stroke="#263238" stroke-linecap="round" stroke-linejoin="round"/>
<path d="M350.727 159.238C350.727 159.238 345.681 141.051 341.215 133.966C336.749 126.882 307.087 117.288 303.729 117.288C300.371 117.288 301.496 123.864 301.496 129.995C301.496 136.127 302.604 146.674 309.883 153.742C317.162 160.81 330.015 165.877 330.015 165.877L333.936 174.47L354.086 164.861L350.727 159.238Z" fill="#FFB79A" stroke="#263238" stroke-linecap="round" stroke-linejoin="round"/>
<path d="M339.123 110.538L340.178 106.313C340.457 105.199 340.485 104.047 340.259 102.923C340.034 101.8 339.559 100.73 338.865 99.7762C338.171 98.8225 337.27 98.0053 336.218 97.3735C335.165 96.7417 333.983 96.3083 332.74 96.0993V96.0993C330.652 95.7455 328.494 96.0393 326.614 96.9331C324.734 97.8269 323.243 99.2682 322.384 101.023L279.676 188.607" stroke="#263238" stroke-linecap="round" stroke-linejoin="round"/>
<path d="M235.367 182.412C235.598 187.686 238.079 192.675 242.291 196.333C246.503 199.991 252.119 202.034 257.961 202.034C263.804 202.034 269.419 199.991 273.631 196.333C277.843 192.675 280.325 187.686 280.555 182.412H235.367Z" fill="#DDA15E" stroke="#263238" stroke-linecap="round" stroke-linejoin="round"/>
<path d="M242.682 156.22C242.91 154.619 243.34 153.047 243.965 151.534" stroke="#263238" stroke-linecap="round" stroke-linejoin="round"/>
<path d="M241.978 178.68C245.829 176.98 247.675 171.04 246.075 167.847C244.958 165.787 243.989 163.665 243.174 161.493" stroke="#263238" stroke-linecap="round" stroke-linejoin="round"/>
<path d="M255.816 178.68C259.684 176.98 261.513 171.04 259.93 167.847C257.979 163.955 256.625 161.35 256.414 158.459" stroke="#263238" stroke-linecap="round" stroke-linejoin="round"/>
<path d="M270.427 155.251C270.684 153.985 271.06 152.742 271.553 151.534" stroke="#263238" stroke-linecap="round" stroke-linejoin="round"/>
<path d="M269.618 178.68C273.469 176.98 275.315 171.04 273.715 167.847C272.676 165.91 271.76 163.921 270.972 161.89" stroke="#263238" stroke-linecap="round" stroke-linejoin="round"/>
<path d="M308.195 117.288C308.195 117.288 293.654 114.255 292.546 116.78C291.439 119.306 291.421 124.373 293.654 125.882C295.887 127.391 311.008 127.899 312.679 127.47C314.349 127.041 318.287 118.194 308.195 117.288Z" fill="#FFB79A" stroke="#263238" stroke-linecap="round" stroke-linejoin="round"/>
<path d="M311.817 129.328C311.817 129.328 297.276 126.295 296.151 128.836C295.025 131.377 295.025 136.413 297.276 137.922C299.527 139.431 314.613 139.955 316.301 139.51C317.988 139.065 321.909 130.234 311.817 129.328Z" fill="#FFB79A" stroke="#263238" stroke-linecap="round" stroke-linejoin="round"/>
<path d="M313.188 139.669C313.188 139.669 298.278 138.906 297.645 141.575C297.012 144.243 297.962 149.215 300.459 150.375C302.955 151.534 317.936 149.707 319.483 148.945C321.03 148.183 323.298 139.018 313.188 139.669Z" fill="#FFB79A" stroke="#263238" stroke-linecap="round" stroke-linejoin="round"/>
<path d="M315.052 150.47C315.052 150.47 302.744 149.835 302.234 152.058C301.724 154.282 302.498 158.412 304.555 159.333C306.612 160.254 318.991 158.777 320.274 158.158C321.558 157.538 323.404 149.914 315.052 150.47Z" fill="#FFB79A" stroke="#263238" stroke-linecap="round" stroke-linejoin="round"/>
<path d="M346.244 148.119C346.244 148.119 342.323 128.407 340.09 124.881C337.857 121.355 317.707 111.729 313.716 109.712C309.725 107.695 303.166 105.169 301.953 108.695C301.438 110.317 301.545 112.049 302.257 113.609C302.969 115.169 304.243 116.465 305.874 117.288C309.232 119.322 317.619 122.339 317.619 123.864C317.619 125.389 322.103 142.051 331.685 148.119" fill="#FFB79A"/>
<path d="M346.244 148.119C346.244 148.119 342.323 128.407 340.09 124.881C337.857 121.355 317.707 111.729 313.716 109.712C309.725 107.695 303.166 105.169 301.953 108.695C301.438 110.317 301.545 112.049 302.257 113.609C302.969 115.169 304.243 116.465 305.874 117.288C309.232 119.322 317.619 122.339 317.619 123.864C317.619 125.389 322.103 142.051 331.685 148.119" stroke="#263238" stroke-linecap="round" stroke-linejoin="round"/>
<path d="M352.837 159.698C352.837 159.698 324.951 172.501 326.78 175.805C328.089 178.582 329.01 181.495 329.523 184.477C329.523 184.477 358.78 172.501 359.237 170.023C359.695 167.545 356.037 161.35 352.837 159.698Z" fill="#AEB791" stroke="#263238" stroke-linecap="round" stroke-linejoin="round"/>
<path d="M471.626 112.825C471.626 112.825 468.584 137.62 468.584 148.087C468.584 158.555 472.312 176.71 495.416 169.594C518.519 162.478 525.306 136.524 525.306 131.473C525.306 126.422 527.75 89.5868 527.75 89.5868C527.75 89.5868 511.275 105.582 497.86 109.426C489.369 111.805 480.515 112.952 471.626 112.825Z" fill="#FFB79A" stroke="#263238" stroke-linecap="round" stroke-linejoin="round"/>
<path d="M497.86 109.505C489.364 111.858 480.51 112.978 471.626 112.825C471.626 112.825 471.116 117.018 470.501 122.673C476.461 125.564 484.567 126.469 490.774 126.771C507.161 127.613 518.203 113.174 526.941 102.215C527.398 95.178 527.75 89.6662 527.75 89.6662C527.75 89.6662 511.275 105.661 497.86 109.505Z" fill="#263238" stroke="#263238" stroke-linecap="round" stroke-linejoin="round"/>
<path d="M465.472 34.4061C465.472 34.4061 472.593 14.6624 480.558 7.4034C488.523 0.144452 535.68 -0.983306 542.203 4.22662C548.726 9.43655 554.511 20.5712 555.97 29.7362C557.43 38.9012 545.825 59.9156 545.825 59.9156L465.472 34.4061Z" fill="#283618" stroke="#263238" stroke-linecap="round" stroke-linejoin="round"/>
<path d="M463.696 46.1284C463.696 46.1284 458.211 61.0117 458.808 71.5427C459.406 82.0737 461.868 92.4936 461.868 99.1013C461.868 105.709 460.655 111.237 467.354 116.192C473.296 120.576 483.389 121.752 490.774 122.133C508.057 123.007 519.398 106.884 528.365 95.7974C528.365 95.7974 545.438 94.2091 546.669 85.3299C547.9 76.4508 545.104 72.4163 545.104 72.4163L545.825 59.9792C545.825 59.9792 488.717 34.5649 463.696 46.1284Z" fill="#FFB79A" stroke="#263238" stroke-linecap="round" stroke-linejoin="round"/>
<path d="M527.152 59.9156C527.152 59.9156 523.477 75.3389 525.921 76.4508C528.365 77.5626 541.183 73.131 541.746 68.1753C542.309 63.2195 535.61 59.3597 527.152 59.9156Z" fill="#263238" stroke="#263238" stroke-linecap="round" stroke-linejoin="round"/>
<path d="M461.077 48.1456C461.077 48.1456 489.332 52.069 511.785 58.6132C534.238 65.1573 545.104 72.3528 545.104 72.3528C545.104 72.3528 552.348 61.234 551.627 55.3411C550.907 49.4481 519.785 38.9806 494.396 34.4061C469.006 29.8315 464.699 30.4668 462.536 33.0877C460.373 35.7085 457.455 45.5248 461.077 48.1456Z" fill="#283618" stroke="#263238" stroke-linecap="round" stroke-linejoin="round"/>
<path d="M481.385 60.4557C481.385 60.4557 466.14 83.0585 469.798 86.3624C473.455 89.6662 482 91.8741 484.444 90.7781" stroke="#263238" stroke-linecap="round" stroke-linejoin="round"/>
<path d="M469.798 96.2898C469.798 96.2898 501.446 104.549 508.233 89.1262" stroke="#263238" stroke-linecap="round" stroke-linejoin="round"/>
<path d="M503.345 86.9183L512.506 90.2222" stroke="#263238" stroke-linecap="round" stroke-linejoin="round"/>
<path d="M500.602 69.2713C502.117 69.2713 503.345 67.4223 503.345 65.1414C503.345 62.8606 502.117 61.0116 500.602 61.0116C499.088 61.0116 497.859 62.8606 497.859 65.1414C497.859 67.4223 499.088 69.2713 500.602 69.2713Z" fill="#263238"/>
<path d="M476.198 59.6297C476.198 61.917 474.967 63.7754 473.455 63.7754C471.943 63.7754 470.712 61.917 470.712 59.6297C470.712 57.3424 471.943 55.4999 473.455 55.4999C474.967 55.4999 476.198 57.3583 476.198 59.6297Z" fill="#263238"/>
<path d="M497.859 52.1961C497.859 52.1961 513.104 52.752 512.506 63.7754" stroke="#263238" stroke-linecap="round" stroke-linejoin="round"/>
<path d="M477.727 48.8922C477.727 48.8922 474.07 46.6843 466.14 54.4039" stroke="#263238" stroke-linecap="round" stroke-linejoin="round"/>
<path d="M295.038 425.752H280.308V617.17H295.038V425.752Z" fill="#BC6C25" stroke="#263238" stroke-linecap="round" stroke-linejoin="round"/>
<path d="M305.238 425.752H290.508V617.17H305.238V425.752Z" fill="#263238" stroke="#263238" stroke-linecap="round" stroke-linejoin="round"/>
<path d="M365.283 425.752H350.553V617.17H365.283V425.752Z" fill="#BC6C25" stroke="#263238" stroke-linecap="round" stroke-linejoin="round"/>
<path d="M375.483 425.752H360.753V617.17H375.483V425.752Z" fill="#263238" stroke="#263238" stroke-linecap="round" stroke-linejoin="round"/>
<path d="M521.642 425.752H506.913V617.17H521.642V425.752Z" fill="#BC6C25" stroke="#263238" stroke-linecap="round" stroke-linejoin="round"/>
<path d="M531.842 425.752H517.113V617.17H531.842V425.752Z" fill="#263238" stroke="#263238" stroke-linecap="round" stroke-linejoin="round"/>
<path d="M591.902 425.752H577.172V617.17H591.902V425.752Z" fill="#BC6C25" stroke="#263238" stroke-linecap="round" stroke-linejoin="round"/>
<path d="M602.087 425.752H587.357V617.17H602.087V425.752Z" fill="#263238" stroke="#263238" stroke-linecap="round" stroke-linejoin="round"/>
<path d="M616.817 418.584H271.233V434.967H616.817V418.584Z" fill="#BC6C25" stroke="#263238" stroke-linecap="round" stroke-linejoin="round"/>
<path d="M616.832 418.584H522.783V434.967H616.832V418.584Z" fill="#263238" stroke="#263238" stroke-linecap="round" stroke-linejoin="round"/>
<path d="M622.487 414.492H259.908V422.676H622.487V414.492Z" fill="#BC6C25" stroke="#263238" stroke-linecap="round" stroke-linejoin="round"/>
<path d="M622.487 414.492H531.842V422.676H622.487V414.492Z" fill="#263238" stroke="#263238" stroke-linecap="round" stroke-linejoin="round"/>
<path d="M417.558 338.675H393.408V331.304H417.558C418.6 331.304 419.6 331.678 420.337 332.344C421.074 333.01 421.488 333.913 421.488 334.854V335.193C421.468 336.123 421.045 337.008 420.311 337.66C419.576 338.311 418.587 338.676 417.558 338.675Z" fill="#DDA15E" stroke="#263238" stroke-linecap="round" stroke-linejoin="round"/>
<path d="M293.538 316.642H407.538V403.475C407.538 406.35 406.274 409.107 404.023 411.14C401.773 413.173 398.721 414.315 395.538 414.315H305.538C302.356 414.315 299.303 413.173 297.053 411.14C294.803 409.107 293.538 406.35 293.538 403.475V316.642Z" fill="#DDA15E" stroke="#263238" stroke-linecap="round" stroke-linejoin="round"/>
<path d="M393.903 316.642V403.041C393.903 406.024 392.591 408.885 390.256 410.994C387.922 413.103 384.755 414.288 381.453 414.288H390.693C393.994 414.285 397.158 413.099 399.492 410.99C401.826 408.882 403.139 406.023 403.143 403.041V316.642H393.903Z" fill="#263238" stroke="#263238" stroke-linecap="round" stroke-linejoin="round"/>
<path d="M311.193 316.642V403.041C311.193 409.248 321.168 414.288 328.038 414.288H318.858C315.555 414.288 312.387 413.104 310.049 410.995C307.712 408.886 306.397 406.025 306.393 403.041V316.642H311.193Z" fill="#263238" stroke="#263238" stroke-linecap="round" stroke-linejoin="round"/>
<path d="M406.743 313.051H294.303C291.669 313.051 289.533 314.98 289.533 317.36V317.699C289.533 320.079 291.669 322.008 294.303 322.008H406.743C409.377 322.008 411.513 320.079 411.513 317.699V317.36C411.513 314.98 409.377 313.051 406.743 313.051Z" fill="#DDA15E" stroke="#263238" stroke-linecap="round" stroke-linejoin="round"/>
<path d="M279.408 331.304H303.558V338.675H279.408C278.366 338.675 277.366 338.301 276.629 337.636C275.892 336.97 275.478 336.067 275.478 335.125V334.786C275.498 333.857 275.921 332.971 276.656 332.32C277.391 331.668 278.379 331.304 279.408 331.304Z" fill="#DDA15E" stroke="#263238" stroke-linecap="round" stroke-linejoin="round"/>
<path d="M293.448 331.304H317.598V338.675H293.448C292.932 338.675 292.421 338.584 291.944 338.405C291.468 338.227 291.034 337.965 290.669 337.636C290.304 337.306 290.015 336.915 289.817 336.484C289.62 336.053 289.518 335.591 289.518 335.125V334.786C289.538 333.857 289.961 332.971 290.696 332.32C291.43 331.668 292.419 331.304 293.448 331.304Z" fill="#DDA15E" stroke="#263238" stroke-linecap="round" stroke-linejoin="round"/>
<path d="M407.178 318.851H293.853V320.233H407.178V318.851Z" fill="#263238" stroke="#263238" stroke-linecap="round" stroke-linejoin="round"/>
<path d="M352.278 282.996C350.103 280.597 347.553 278.592 347.553 273.903C347.477 271.439 348.388 269.033 350.118 267.128" stroke="#263238" stroke-linecap="round" stroke-linejoin="round"/>
<path d="M347.553 306.601C347.553 298.47 355.293 298.47 355.293 290.259C355.298 289.281 355.167 288.307 354.903 287.359" stroke="#263238" stroke-linecap="round" stroke-linejoin="round"/>
<path d="M375.438 276.166C374.87 274.779 374.595 273.308 374.628 271.83" stroke="#263238" stroke-linecap="round" stroke-linejoin="round"/>
<path d="M374.628 306.601C374.628 297.915 382.353 297.915 382.353 289.215C382.353 284.364 379.953 282.223 377.853 279.73" stroke="#263238" stroke-linecap="round" stroke-linejoin="round"/>
<path d="M316.623 275.258C316.46 274.467 316.38 273.664 316.383 272.86C316.358 271.475 316.612 270.097 317.133 268.794" stroke="#263238" stroke-linecap="round" stroke-linejoin="round"/>
<path d="M316.383 306.601C316.383 298.172 324.123 298.172 324.123 289.744C324.133 288.193 323.802 286.656 323.151 285.221C322.5 283.786 321.54 282.481 320.328 281.383" stroke="#263238" stroke-linecap="round" stroke-linejoin="round"/>
<path d="M573.587 338.675H549.437V331.304H573.587C574.63 331.304 575.629 331.678 576.366 332.344C577.103 333.01 577.517 333.913 577.517 334.854V335.193C577.498 336.123 577.075 337.008 576.34 337.66C575.605 338.311 574.617 338.676 573.587 338.675Z" fill="#DDA15E" stroke="#263238" stroke-linecap="round" stroke-linejoin="round"/>
<path d="M449.583 316.642H563.582V403.475C563.582 406.35 562.318 409.107 560.068 411.14C557.817 413.173 554.765 414.315 551.582 414.315H461.583C458.4 414.315 455.348 413.173 453.097 411.14C450.847 409.107 449.583 406.35 449.583 403.475V316.642Z" fill="#DDA15E" stroke="#263238" stroke-linecap="round" stroke-linejoin="round"/>
<path d="M549.947 316.642V403.041C549.943 406.025 548.628 408.886 546.291 410.995C543.954 413.104 540.786 414.288 537.482 414.288H546.692C549.994 414.288 553.161 413.103 555.496 410.994C557.831 408.885 559.142 406.024 559.142 403.041V316.642H549.947Z" fill="#263238" stroke="#263238" stroke-linecap="round" stroke-linejoin="round"/>
<path d="M467.193 316.642V403.041C467.193 409.248 477.153 414.288 484.038 414.288H474.843C471.542 414.285 468.378 413.099 466.044 410.99C463.71 408.882 462.397 406.023 462.393 403.041V316.642H467.193Z" fill="#263238" stroke="#263238" stroke-linecap="round" stroke-linejoin="round"/>
<path d="M562.772 313.051H450.333C447.698 313.051 445.563 314.98 445.563 317.36V317.699C445.563 320.079 447.698 322.008 450.333 322.008H562.772C565.407 322.008 567.542 320.079 567.542 317.699V317.36C567.542 314.98 565.407 313.051 562.772 313.051Z" fill="#DDA15E" stroke="#263238" stroke-linecap="round" stroke-linejoin="round"/>
<path d="M435.438 331.304H459.588V338.675H435.438C434.395 338.675 433.396 338.301 432.659 337.636C431.922 336.97 431.508 336.067 431.508 335.125V334.786C431.527 333.857 431.95 332.971 432.685 332.32C433.42 331.668 434.408 331.304 435.438 331.304Z" fill="#DDA15E" stroke="#263238" stroke-linecap="round" stroke-linejoin="round"/>
<path d="M449.478 331.304H473.628V338.675H449.478C448.436 338.675 447.436 338.301 446.699 337.636C445.962 336.97 445.548 336.067 445.548 335.125V334.786C445.567 333.857 445.99 332.971 446.725 332.32C447.46 331.668 448.448 331.304 449.478 331.304Z" fill="#DDA15E" stroke="#263238" stroke-linecap="round" stroke-linejoin="round"/>
<path d="M563.222 318.851H449.898V320.233H563.222V318.851Z" fill="#263238" stroke="#263238" stroke-linecap="round" stroke-linejoin="round"/>
<path d="M506.823 295.598H506.643C505.3 295.598 504.213 296.581 504.213 297.793V304.04C504.213 305.252 505.3 306.235 506.643 306.235H506.823C508.165 306.235 509.253 305.252 509.253 304.04V297.793C509.253 296.581 508.165 295.598 506.823 295.598Z" fill="#606C38" stroke="#263238" stroke-linecap="round" stroke-linejoin="round"/>
<path d="M450.513 313.105L455.373 310.043C461.114 306.411 467.953 304.462 474.963 304.46H538.863C547.708 304.46 556.209 307.559 562.577 313.105H450.513Z" fill="#606C38" stroke="#263238" stroke-linecap="round" stroke-linejoin="round"/>
<path d="M111.24 170.753C111.24 170.753 118.215 181.998 121.19 188.546C124.165 195.094 128.165 203.54 124.181 201.658C120.198 199.776 116.215 197.451 112.736 197.451C109.256 197.451 108.265 201.199 106.769 198.384C105.273 195.568 111.24 170.753 111.24 170.753Z" fill="#606C38" stroke="#263238" stroke-linecap="round" stroke-linejoin="round"/>
<path d="M100.802 574.411C100.802 574.411 124.686 587.523 133.661 590.338C142.636 593.153 148.586 598.246 149.073 603.449L149.578 608.59L149.073 612.338H40.0766C38.4192 608.468 37.5744 604.332 37.5891 600.16C37.5891 593.137 41.5724 591.73 43.5725 587.507C45.5726 583.284 93.3229 571.137 93.3229 571.137L100.802 574.411Z" fill="#AEB791" stroke="#263238" stroke-linecap="round" stroke-linejoin="round"/>
<path d="M38.6312 608.083C38.9938 609.52 39.4771 610.926 40.0766 612.29H149.057L149.561 608.542L149.057 603.402C148.569 598.246 142.603 593.09 133.644 590.29V608.083H38.6312Z" fill="white" stroke="#263238" stroke-linecap="round" stroke-linejoin="round"/>
<path d="M127.661 351.04C127.661 351.04 131.157 356.655 128.165 358.948C125.173 361.242 123.677 362.238 123.677 362.238C125.748 366.157 126.278 370.64 125.173 374.891C123.19 381.455 114.231 409.07 114.231 422.181C114.231 435.293 115.223 467.605 109.744 485.873C104.265 504.14 93.3229 543.933 94.8188 552.838C96.3146 561.742 101.794 565.949 102.786 568.29C103.631 571.187 103.966 574.195 103.777 577.195C103.777 579.994 93.3229 592.647 75.9103 598.72C58.4977 604.794 43.976 605.758 40.6145 604.809C37.2529 603.86 33.6561 598.262 34.1436 593.58C34.631 588.898 36.1773 587.997 36.1773 584.707C36.1773 581.417 28.2105 549.595 29.2021 531.802C30.1938 514.009 46.1273 486.837 46.1273 473.726C46.1273 460.614 41.0851 437.681 37.1689 424.095C33.2527 410.509 32.1266 407.709 32.1266 406.302C32.1266 404.894 26.6474 394.123 23.1682 385.219C19.6891 376.315 14.7645 367.9 14.7645 358.537C14.8307 352.271 15.3304 346.016 16.2603 339.811L20.7479 329.04C20.7479 329.04 123.745 342.61 125.24 342.61C126.736 342.61 127.661 351.04 127.661 351.04Z" fill="#283618" stroke="#263238" stroke-linecap="round" stroke-linejoin="round"/>
<path d="M116.224 315.53C116.224 315.53 142.494 303.177 146.763 298.828C151.032 294.479 146.763 284.467 148.175 284.467C149.587 284.467 158.108 281.13 158.831 278.141C159.554 275.151 158.108 270.122 159.537 270.122C160.966 270.122 177.286 266.453 183.673 266.785C190.059 267.117 207.102 267.781 212.783 260.11C218.464 252.439 222.683 245.733 222.683 243.725C222.683 241.716 221.002 241.147 217.389 243.44C213.775 245.733 183.992 246.398 175.823 246.398C167.655 246.398 164.478 245.386 160.915 247.979C157.352 250.573 143.889 263.353 142.108 263.353C140.326 263.353 134.662 262.688 131.468 266.025C128.94 264.492 125.945 263.786 122.947 264.017C118.678 264.681 99.1643 274.708 99.1643 274.708L116.224 315.53Z" fill="#FFB79A" stroke="#263238" stroke-linecap="round" stroke-linejoin="round"/>
<path d="M110.248 190.887C110.684 191.479 111.088 192.091 111.458 192.722C114.69 198.256 116.809 204.304 117.711 210.562C119.711 223.215 120.702 246.623 125.173 263.008C129.644 279.394 146.082 304.209 143.661 324.817C141.241 345.426 134.703 351.974 123.257 352.448C111.811 352.923 31.6897 336.996 19.7563 333.722C7.82297 330.448 5.31864 332.314 6.31028 321.543C7.30193 310.773 19.7563 271.897 20.2437 257.852C20.7311 243.807 9.78944 212.903 25.286 190.428C40.7825 167.954 57.6405 152.96 67.0863 154.842C76.5322 156.724 103.777 174.501 110.248 190.887Z" fill="#DDA15E" stroke="#263238" stroke-linecap="round" stroke-linejoin="round"/>
<path d="M87.3562 53.2237C87.3562 53.2237 104.769 46.2014 118.702 48.0677C132.636 49.934 146.569 60.2461 149.561 67.2684C152.553 74.2908 155.04 77.5647 155.04 82.2462C155.04 86.9278 155.04 88.3354 154.536 89.7431L154.049 91.1507C154.049 91.1507 159.091 102.396 159.511 106.129C159.931 109.861 159.511 111.759 156.032 111.759H152.553C152.553 111.759 148.065 139.848 144.149 143.122C140.233 146.396 128.232 146.871 128.232 146.871C128.232 146.871 116.786 151.616 114.299 166.546C111.811 181.476 108.819 198.858 108.819 198.858C108.819 198.858 83.4401 155.301 80.4651 145.938C77.4902 136.574 75.9775 130.011 75.9775 130.011C78.8211 125.606 80.5466 120.642 81.0198 115.507C81.524 107.599 70.5655 90.6762 73.5572 74.7652C76.549 58.8543 87.3562 53.2237 87.3562 53.2237Z" fill="#FFB79A" stroke="#263238" stroke-linecap="round" stroke-linejoin="round"/>
<path d="M144.082 143.091C147.174 140.56 150.553 123.115 151.931 115.397C148.687 113.072 133.577 110.826 127.661 113.594C121.744 116.362 115.223 121.091 114.215 119.683C113.206 118.275 108.45 97.2241 111.895 93.4915C115.341 89.7589 123.845 89.7273 121.845 83.6381C119.845 77.5489 111.24 80.8544 110.752 75.73C110.265 70.6056 115.795 65.8924 109.256 64.5006C104.762 63.7541 100.14 64.0749 95.8104 65.4338C94.3313 65.4338 91.3396 63.5516 91.3396 58.8701C91.3415 57.6346 90.8965 56.4354 90.0779 55.4695C89.2592 54.5037 88.1156 53.8288 86.8352 53.5559C84.6334 54.9002 76.0279 60.942 73.3891 74.7969C70.3974 90.7078 81.3559 107.568 80.8517 115.539C80.4467 120.259 78.9739 124.843 76.5322 128.983C78.8325 129.935 81.4025 130.146 83.8434 129.584C88.8857 128.176 88.3142 123.969 89.8101 120.679C91.306 117.39 96.281 116.472 93.7935 110.383C91.306 104.294 97.7769 97.7302 100.752 98.2047C103.727 98.6791 106.735 103.361 105.239 106.113C103.744 108.865 100.197 122.498 100.197 129.521C100.197 136.543 102.18 142.632 106.668 144.973C111.156 147.314 117.374 149.417 121.795 151.299C123.567 149.497 125.667 148.008 127.997 146.902C127.997 146.902 140.115 146.412 144.082 143.091Z" fill="#263238" stroke="#263238" stroke-linecap="round" stroke-linejoin="round"/>
<path d="M145.578 93.017C145.578 94.8358 144.905 96.3067 144.082 96.3067C143.258 96.3067 142.603 94.8358 142.603 93.017C142.603 91.1982 143.258 89.7431 144.082 89.7431C144.905 89.7431 145.578 91.214 145.578 93.017Z" fill="#263238"/>
<path d="M136.619 84.5712C139.155 83.2344 141.823 82.1327 144.586 81.2815C147.073 80.8228 151.057 82.6891 150.553 78.9407C150.048 75.1923 145.09 76.5999 139.107 78.0076C133.123 79.4152 133.14 82.7208 136.619 84.5712Z" fill="white" stroke="#263238" stroke-linecap="round" stroke-linejoin="round"/>
<path d="M130.148 92.0838C131.722 92.941 133.421 93.5752 135.191 93.9659" stroke="#263238" stroke-linecap="round" stroke-linejoin="round"/>
<path d="M135.123 95.8322C134.269 96.4034 133.288 96.7843 132.254 96.946C131.22 97.1076 130.161 97.0459 129.156 96.7654" stroke="#263238" stroke-linecap="round" stroke-linejoin="round"/>
<path d="M128.182 74.7336C128.182 74.7336 135.896 68.9291 145.544 70.3842" stroke="#263238" stroke-linecap="round" stroke-linejoin="round"/>
<path d="M132.417 65.5919C132.417 65.5919 142.065 63.0613 146.317 65.5919" stroke="#263238" stroke-linecap="round" stroke-linejoin="round"/>
<path d="M96.3146 61.6537C94.8188 61.6537 91.8438 59.7716 91.8438 55.09C91.8438 50.4084 85.8604 47.609 81.3896 51.3416C76.9188 55.0742 77.9104 57.4308 73.4228 58.3639C68.9352 59.2971 59.4893 56.4976 57.9935 65.4021C56.4976 74.3065 58.4977 76.6315 56.4976 78.9723C54.4975 81.3131 44.06 85.536 44.5642 93.4914C45.0685 101.447 51.0351 101.399 49.0351 106.144C47.035 110.889 42.0767 116.915 49.5393 121.597C57.0018 126.278 69.4394 116.456 70.9353 120.205C72.4311 123.953 79.339 127.227 84.3813 125.82C89.4236 124.412 88.8689 120.205 90.3648 116.915C91.8606 113.625 96.8357 112.708 94.3482 106.619C91.8607 100.53 98.3147 93.9659 101.306 94.4404C104.298 94.9149 107.273 99.5965 105.794 102.348C104.315 105.1 100.752 118.734 100.752 125.756C100.752 132.779 102.735 138.868 107.206 141.209C111.677 143.549 118.652 145.953 123.139 147.772C127.627 149.591 141.544 155.253 146.031 151.505C150.519 147.756 152.99 138.852 152.99 130.438C152.99 122.024 155.477 114.052 152.502 111.712C149.527 109.371 134.014 106.967 128.115 109.829C122.215 112.692 115.677 117.326 114.668 115.919C113.66 114.511 110.181 99.5332 113.66 95.7848C117.139 92.0364 125.61 87.3548 123.61 81.2656C121.61 75.1764 111.677 77.0585 111.173 71.9025C110.668 66.7465 116.215 62.0649 109.677 60.6731C105.205 59.9532 100.614 60.2902 96.3146 61.6537Z" fill="#BC6C25" stroke="#263238" stroke-linecap="round" stroke-linejoin="round"/>
<path d="M132.148 116.441C133.634 118.535 135.766 120.15 138.258 121.069C140.749 121.988 143.479 122.166 146.082 121.581" stroke="#263238" stroke-linecap="round" stroke-linejoin="round"/>
<path d="M106.567 100.878C106.567 100.878 105.794 94.3455 97.3063 93.2542C88.8185 92.1629 88.0454 105.227 91.5245 111.411C95.0037 117.595 99.6257 114.305 99.6257 114.305" fill="#FFB79A"/>
<path d="M106.567 100.878C106.567 100.878 105.794 94.3455 97.3063 93.2542C88.8185 92.1629 88.0454 105.227 91.5245 111.411C95.0037 117.595 99.6257 114.305 99.6257 114.305" stroke="#263238" stroke-linecap="round" stroke-linejoin="round"/>
<path d="M74.9186 125.329C74.9186 125.329 92.8354 164.664 97.8105 174.976C102.786 185.288 110.248 192.769 110.248 203.065C110.248 213.362 114.736 235.852 114.736 258.327C114.736 280.801 120.702 313.114 118.702 325.751C116.702 338.388 111.811 347.767 111.811 352.923C111.811 358.079 112.299 365.575 109.811 365.575C107.324 365.575 71.5067 363.235 45.1189 357.145C18.731 351.056 3.3185 348.241 3.3185 344.493C3.3185 340.744 4.81437 333.722 4.81437 331.84C4.81437 329.958 -1.1523 326.225 1.83944 313.588C4.83118 300.951 7.80611 261.601 8.79776 233.511C9.7894 205.422 21.7396 180.591 29.7063 169.345C37.6731 158.1 51.5561 150.16 51.5561 150.16C51.5561 150.16 43.6062 141.256 53.052 135.641C60.0477 131.679 67.3583 128.231 74.9186 125.329Z" fill="#606C38" stroke="#263238" stroke-linecap="round" stroke-linejoin="round"/>
<path d="M10.2264 331.666C40.0721 343.702 72.1644 350.03 104.634 350.281" stroke="#263238" stroke-linecap="round" stroke-linejoin="round"/>
<path d="M21.5715 335.905L19.5378 348.763" stroke="#263238" stroke-linecap="round" stroke-linejoin="round"/>
<path d="M36.5975 341.693L34.5469 351.974" stroke="#263238" stroke-linecap="round" stroke-linejoin="round"/>
<path d="M52.9848 345.536L51.6234 355.817" stroke="#263238" stroke-linecap="round" stroke-linejoin="round"/>
<path d="M68.0108 348.115L67.3217 357.114" stroke="#263238" stroke-linecap="round" stroke-linejoin="round"/>
<path d="M85.0703 350.044V359.676" stroke="#263238" stroke-linecap="round" stroke-linejoin="round"/>
<path d="M97.8105 174.976C92.7682 164.664 74.9186 125.329 74.9186 125.329C67.3641 128.232 60.0591 131.68 53.0688 135.641C43.623 141.256 51.573 150.16 51.573 150.16C51.573 150.16 68.4981 173.568 73.9774 184.339C79.4567 195.11 77.9608 192.769 82.9358 200.266C87.9108 207.763 90.3984 213.836 91.8942 211.495C93.3901 209.154 105.828 197.909 108.803 198.842C109.156 198.953 109.525 199.048 109.929 199.143C108.332 190.76 102.13 183.928 97.8105 174.976Z" fill="#606C38" stroke="#263238" stroke-linecap="round" stroke-linejoin="round"/>
<path d="M165.982 223.199H260.104C260.104 223.199 252.137 233.037 244.675 237.26C237.212 241.483 227.262 242.004 227.262 242.004H202.303C202.303 242.004 182.403 241.467 165.982 223.199Z" fill="#606C38" stroke="#263238" stroke-linecap="round" stroke-linejoin="round"/>
<path d="M162.99 247.556C167.188 244.088 170.724 239.969 173.444 235.377C174.825 232.669 176.843 230.292 179.344 228.426C181.845 226.56 184.765 225.254 187.882 224.607C192.924 223.674 209.278 222.266 212.27 220.858C215.262 219.451 217.312 226.014 215.749 228.355C214.186 230.696 207.782 232.562 203.799 233.1C201.22 233.544 198.911 234.882 197.328 236.848C199.575 238.481 202.098 239.748 204.79 240.597C209.278 242.004 217.245 242.463 220.724 240.597C224.203 238.73 236.641 230.285 237.649 235.852C238.658 241.419 233.162 243.76 230.17 247.081C227.178 250.403 221.766 256.444 219.732 256.919C217.699 257.393 201.816 257.393 191.865 258.327C181.915 259.26 170.016 265.823 170.016 265.823L161.057 247.556H162.99Z" fill="#FFB79A" stroke="#263238" stroke-linecap="round" stroke-linejoin="round"/>
<path d="M144.586 254.578C144.586 254.578 160.503 244.741 162.99 247.556C165.478 250.371 177.428 262.534 174.436 267.69C171.444 272.846 152.048 281.276 152.048 281.276L144.586 254.578Z" fill="#DDA15E" stroke="#263238" stroke-linecap="round" stroke-linejoin="round"/>
<path d="M69.4393 184.813C69.4393 184.813 80.8853 196.517 85.3729 207.288C89.8605 218.059 100.298 248.41 101.794 250.83C103.29 253.25 105.777 257.393 105.777 257.393C105.777 257.393 131.644 250.83 137.123 250.371C142.603 249.912 148.065 254.578 151.544 260.667C155.023 266.757 166.486 285.008 161.511 289.706C156.536 294.403 113.24 315.486 100.298 320.136C87.3562 324.786 74.4144 322.002 68.3637 312.228C62.3129 302.453 37.0176 248.078 32.0426 235.425C27.0675 222.772 27.5549 212.476 29.555 208.727" fill="#606C38"/>
<path d="M69.4393 184.813C69.4393 184.813 80.8853 196.517 85.3729 207.288C89.8605 218.059 100.298 248.41 101.794 250.83C103.29 253.25 105.777 257.393 105.777 257.393C105.777 257.393 131.644 250.83 137.123 250.371C142.603 249.912 148.065 254.578 151.544 260.667C155.023 266.757 166.486 285.008 161.511 289.706C156.536 294.403 113.24 315.486 100.298 320.136C87.3562 324.786 74.4144 322.002 68.3637 312.228C62.3129 302.453 37.0176 248.078 32.0426 235.425C27.0675 222.772 27.5549 212.476 29.555 208.727" stroke="#263238" stroke-linecap="round" stroke-linejoin="round"/>
<path d="M87.3562 288.298C89.8437 273.304 105.844 257.393 105.844 257.393C105.844 257.393 87.9276 265.823 81.9442 272.846" stroke="#263238" stroke-linecap="round" stroke-linejoin="round"/>
</svg>

