<svg width="620" height="600" viewBox="0 0 739 604" fill="none" xmlns="http://www.w3.org/2000/svg">
<path d="M243.952 583.193C243.952 583.193 364.1 622.198 482.041 560.094C599.982 497.991 659.5 374.697 710.602 275.938C761.704 177.178 732.294 76.7222 642.318 30.8877C552.342 -14.9469 491.061 52.6377 364.767 55.9002C238.474 59.1626 204.427 42.7777 99.6347 107.868C-5.15743 172.959 -24.1181 326.818 58.5531 440.73C141.224 554.642 243.952 583.193 243.952 583.193Z" fill="#606C38"/>
<path opacity="0.7" d="M238.2 582.047C238.2 582.047 357.76 623.82 477.139 563.471C596.518 503.122 650.5 393.5 704.499 286.5C765 185 733.323 77.2522 644.121 29.1855C554.92 -18.8812 496.621 50.6855 368.622 54.1856C242.058 54.963 210.39 39.0589 104.121 102.685C-2.14809 166.312 -25.5176 319.349 55 436C135.518 552.651 238.2 582.047 238.2 582.047Z" fill="white"/>
</svg>
