<svg width="560" height="620" viewBox="0 0 860 1044" fill="none" xmlns="http://www.w3.org/2000/svg">
<path d="M287.096 96.0132C287.096 96.0132 201.908 115.712 160.137 199.519C118.367 283.325 135.622 384.667 147.478 467.12C159.334 549.572 218.086 603.129 288.812 599.053C359.538 594.977 366.518 528.753 437.611 479.622C508.704 430.491 535.067 428.333 568.049 347.505C601.031 266.678 547.765 160.812 452.848 118.45C357.932 76.0884 287.096 96.0132 287.096 96.0132Z" fill="#606C38"/>
<path opacity="0.7" d="M427.499 108C427.499 108 336.999 70 255.998 106.499C177.499 147.5 154.999 199 141.999 250C124.499 298.001 129 514 193.999 567.5C303.5 642 341.999 584.5 403.499 508.5C471.093 451.57 444.499 477 504.496 437.984C563.999 388 606.499 299.5 553.999 208.5C501.499 117.5 427.499 108 427.499 108Z" fill="white"/>
</svg>

