<svg width="466" height="545" viewBox="0 0 466 545" fill="none" xmlns="http://www.w3.org/2000/svg">
<path d="M125.031 181.637C126.825 193.826 124.969 206.273 119.7 217.404C114.43 228.535 105.984 237.85 95.429 244.17C84.8741 250.489 72.6856 253.529 60.4058 252.905C48.1261 252.28 36.3071 248.02 26.4449 240.662C16.5826 233.305 9.12031 223.182 5.00243 211.573C0.884539 199.964 0.296169 187.393 3.31177 175.449C6.32737 163.505 12.8114 152.726 21.9432 144.477C31.075 136.227 42.4442 130.877 54.6117 129.104C62.6782 127.919 70.8984 128.339 78.8031 130.338C86.7077 132.337 94.1419 135.877 100.681 140.755C107.22 145.634 112.736 151.755 116.914 158.77C121.092 165.784 123.85 173.555 125.031 181.637Z" fill="#E0E4CF"/>
<path d="M124.723 179.705C124.361 179.705 123.705 177.101 122.044 172.537C119.703 166.111 116.387 160.085 112.212 154.673C109.329 150.989 106.055 147.632 102.446 144.66C98.2976 141.286 93.7325 138.462 88.8636 136.258C86.241 135.054 83.532 134.049 80.7594 133.251C77.8798 132.396 74.937 131.773 71.9587 131.385C68.8836 130.958 65.7797 130.774 62.6757 130.835C59.474 130.913 56.282 131.222 53.1249 131.761C49.9775 132.346 46.8755 133.154 43.8419 134.177C40.8984 135.196 38.0369 136.439 35.2823 137.895C32.6224 139.299 30.0743 140.905 27.6603 142.7C25.3338 144.401 23.1396 146.277 21.0966 148.311C17.2839 152.045 13.97 156.259 11.2377 160.847C8.86687 164.879 6.94431 169.159 5.50447 173.611C3.44505 180.122 2.40131 186.913 2.41015 193.744C2.41015 198.616 2.71825 201.341 2.41015 201.408C2.10206 201.475 1.20457 198.831 0.628574 193.838C-0.121673 186.728 0.459838 179.54 2.34318 172.645C3.63612 167.851 5.49324 163.228 7.87545 158.874C10.6355 153.858 14.06 149.239 18.0559 145.143C20.2063 142.912 22.5311 140.856 25.0081 138.996C27.571 137.019 30.2903 135.255 33.139 133.721C36.0964 132.139 39.1735 130.793 42.3416 129.694C45.6042 128.546 48.9493 127.649 52.3479 127.01C55.7524 126.426 59.1957 126.099 62.6489 126.03C66.0009 125.984 69.3513 126.203 72.6686 126.688C75.8725 127.153 79.0347 127.871 82.1257 128.835C85.0902 129.727 87.9793 130.854 90.7657 132.204C95.9271 134.675 100.731 137.836 105.045 141.6C108.777 144.866 112.109 148.565 114.971 152.619C119.108 158.447 122.124 164.997 123.866 171.933C125.031 176.872 125.031 179.637 124.723 179.705Z" fill="#AEB791"/>
<path d="M75.8031 226.332L77.5177 237.07L67.9802 238.6L66.3058 228.185C56.7683 229.124 47.2308 227.607 41.3235 224.346L44.6589 211.85C50.7532 214.795 57.5049 216.109 64.2563 215.662L61.6978 199.69C50.7002 198.817 38.2962 197.166 36.1127 183.49C34.4919 173.356 40.4528 163.477 55.2547 159.33L53.5534 148.713L63.1043 147.183L64.7653 157.599C71.6509 156.88 78.6086 157.8 85.0726 160.283L82.1792 172.819C77.2788 170.905 72.0457 169.992 66.788 170.135L69.3867 186.389C80.3709 187.181 92.5874 188.845 94.7441 202.334C96.3783 212.347 90.4977 222.118 75.8031 226.332ZM59.5144 185.597L57.3443 172.014C52.4684 173.973 50.9012 177.074 51.4102 180.228C51.9192 183.382 55.0939 185.006 59.5144 185.597ZM79.6073 206.012C79.0715 202.656 76.0174 201.287 71.6773 200.509L73.7938 213.716C78.4018 211.85 80.103 209.072 79.6073 206.012Z" fill="#AEB791"/>
<path d="M428.288 112.689C432.941 120.336 435.226 129.194 434.852 138.142C434.479 147.091 431.464 155.727 426.19 162.958C420.915 170.189 413.618 175.689 405.222 178.762C396.826 181.836 387.709 182.344 379.025 180.222C370.34 178.101 362.479 173.446 356.437 166.846C350.395 160.246 346.443 151.998 345.081 143.146C343.719 134.294 345.01 125.236 348.788 117.119C352.567 109.003 358.664 102.192 366.307 97.5487C376.532 91.326 388.803 89.4253 400.425 92.2642C412.047 95.1031 422.069 102.449 428.288 112.689Z" fill="#E0E4CF"/>
<path d="M427.551 111.481C427.323 111.642 426.131 110.045 423.706 107.454C420.329 103.816 416.406 100.728 412.079 98.3003C409.108 96.6477 405.963 95.3289 402.703 94.3677C398.971 93.2897 395.118 92.6943 391.236 92.596C389.142 92.5418 387.047 92.6405 384.967 92.8913C382.799 93.1398 380.654 93.5571 378.551 94.1395C376.369 94.725 374.237 95.4835 372.175 96.4078C367.919 98.3171 363.987 100.88 360.521 104.005C358.842 105.518 357.283 107.16 355.859 108.917C353.145 112.237 350.938 115.941 349.309 119.91C347.813 123.501 346.79 127.274 346.268 131.13C345.823 134.499 345.746 137.906 346.04 141.291C346.502 146.237 347.727 151.082 349.671 155.652C351.01 158.914 352.028 160.659 351.8 160.806C351.573 160.954 350.26 159.464 348.465 156.256C345.954 151.71 344.31 146.735 343.616 141.586C343.125 138.028 343.058 134.423 343.415 130.849C344.084 124.451 346.073 118.262 349.255 112.675C350.44 110.627 351.784 108.675 353.274 106.837C354.789 104.912 356.46 103.116 358.27 101.468C361.979 98.0622 366.224 95.2956 370.835 93.2805C373.066 92.293 375.373 91.4895 377.734 90.878C380.005 90.2732 382.321 89.8513 384.659 89.6163C386.883 89.3768 389.123 89.314 391.357 89.4284C399.131 89.7289 406.694 92.0409 413.312 96.1394C417.728 98.861 421.598 102.384 424.725 106.528C426.908 109.521 427.765 111.373 427.551 111.481Z" fill="#AEB791"/>
<path d="M408.007 156.579L412.173 163.29L406.226 167.021L402.207 160.525C396.085 163.853 389.28 165.558 384.391 165.048L383.119 155.652C388.033 155.899 392.927 154.858 397.318 152.632L391.089 142.673C383.48 145.21 374.72 147.64 369.388 139.103C365.437 132.781 366.629 124.473 375.363 117.507L371.224 110.877L377.184 107.145L381.203 113.655C385.628 111.222 390.57 109.882 395.616 109.749L397.224 118.957C393.405 119.084 389.648 119.969 386.173 121.561L392.509 131.708C400.09 129.104 408.73 126.768 413.941 135.17C417.812 141.371 416.647 149.586 408.007 156.579ZM385.57 134.003L380.279 125.534C377.6 128.218 377.399 130.741 378.631 132.714C379.864 134.687 382.435 134.754 385.57 134.003ZM404.792 141.949C403.453 139.868 401.055 139.814 397.934 140.526L403.078 148.754C405.65 146.177 405.984 143.814 404.792 141.895V141.949Z" fill="#AEB791"/>
<path d="M356.676 44.2501C352.79 46.7173 348.26 47.9739 343.66 47.8607C339.061 47.7476 334.598 46.2698 330.837 43.6144C327.076 40.9591 324.185 37.2454 322.531 32.9435C320.877 28.6416 320.534 23.9447 321.545 19.4473C322.556 14.9498 324.876 10.8539 328.211 7.67796C331.546 4.50198 335.746 2.38866 340.28 1.60542C344.814 0.822179 349.478 1.40423 353.682 3.27791C357.886 5.15159 361.441 8.23269 363.896 12.1313C365.528 14.715 366.635 17.5955 367.156 20.6082C367.676 23.621 367.598 26.7069 366.928 29.6896C366.257 32.6723 365.007 35.4935 363.248 37.9918C361.489 40.4902 359.256 42.6167 356.676 44.2501Z" fill="#E0E4CF"/>
<path d="M357.279 43.8608C357.212 43.74 358.016 43.1092 359.328 41.8341C361.165 40.0577 362.715 38.0066 363.923 35.754C364.743 34.2061 365.39 32.5721 365.852 30.8818C366.375 28.9521 366.645 26.9623 366.656 24.9627C366.675 23.8808 366.608 22.7992 366.455 21.728C366.306 20.6113 366.073 19.5076 365.758 18.4262C365.431 17.3091 365.019 16.2187 364.526 15.1647C364.01 14.0781 363.419 13.0286 362.758 12.0239C362.081 11.0232 361.333 10.0723 360.521 9.17846C359.727 8.32852 358.872 7.53892 357.962 6.8162C357.079 6.11812 356.143 5.48987 355.162 4.93712C354.23 4.41512 353.258 3.96637 352.256 3.59493C350.39 2.86914 348.442 2.37773 346.455 2.13193C344.72 1.93735 342.967 1.93735 341.231 2.13193C338.691 2.41104 336.21 3.08579 333.877 4.13181C333.028 4.60744 332.13 4.98993 331.198 5.27267C331.838 4.52921 332.628 3.92997 333.516 3.51439C335.825 2.16448 338.364 1.25437 341.004 0.83C342.838 0.547215 344.7 0.484137 346.549 0.642094C348.676 0.806661 350.772 1.25813 352.778 1.98429C353.868 2.38397 354.925 2.86865 355.939 3.43386C357 4.01381 358.012 4.67809 358.967 5.42031C359.963 6.18898 360.898 7.03253 361.766 7.94364C362.639 8.8981 363.444 9.91162 364.178 10.977C364.922 12.0696 365.58 13.2184 366.147 14.413C366.688 15.556 367.136 16.741 367.486 17.9564C367.819 19.1207 368.056 20.3103 368.196 21.5132C368.335 22.6664 368.389 23.8284 368.357 24.9895C368.252 29.0064 367.122 32.9295 365.075 36.3848C363.715 38.685 361.939 40.7106 359.837 42.3576C359.103 43.0379 358.23 43.5507 357.279 43.8608Z" fill="#AEB791"/>
<path d="M333.998 34.1837L330.595 36.3983L328.64 33.3381L331.935 31.1906C330.267 28.4381 329.408 25.2699 329.457 22.0502L334.239 21.2986C334.161 23.8362 334.738 26.351 335.913 28.6001L340.91 25.2849C339.57 21.3791 338.231 16.8827 342.544 14.0507C345.759 11.9569 350.032 12.4938 353.702 16.9364L357.065 14.7487L359.034 17.782L355.739 19.9161C357.025 22.1687 357.763 24.693 357.895 27.2848L353.18 28.1975C353.065 26.2554 352.573 24.3544 351.733 22.6005L346.576 25.9694C347.983 29.8484 349.255 34.291 344.995 37.0694C341.834 39.0961 337.615 38.5726 333.998 34.1837ZM345.411 22.3992L349.724 19.594C348.317 18.2518 347.045 18.1578 346.014 18.8155C344.982 19.4732 344.915 20.7885 345.357 22.3992H345.411ZM341.499 32.3985C342.571 31.7006 342.571 30.4524 342.182 28.8417L337.99 31.5261C339.262 32.8683 340.481 33.0294 341.446 32.3985H341.499Z" fill="#AEB791"/>
<path d="M386.29 276.407C386.29 276.407 325.005 235.866 317.248 231.884C309.858 228.086 286.402 225.33 284.301 224.852L242.298 216.276L178.138 218.064L159.762 228.393L113.191 248.461C100.498 253.918 90.4936 263.664 85.1934 275.733L55.7911 342.762L128.811 362.904L131.082 433.608L113.874 545H327.407L316.657 331.515L338.892 336.085L386.29 276.407Z" fill="#283618"/>
<path d="M130.124 334.431C130.124 334.431 129.349 334.958 127.866 335.766C125.776 336.951 123.457 337.742 121.04 338.094C117.422 338.331 113.791 337.838 110.395 336.648C106.207 335.347 102.149 333.707 98.2668 331.748C94.1058 329.726 90.2074 327.68 86.5584 326.038C83.3401 324.538 79.9948 323.288 76.5564 322.302C74.2342 321.65 71.8528 321.199 69.4421 320.954C68.5889 320.868 67.9326 320.831 67.4732 320.819H66.7906C67.6668 320.79 68.5441 320.818 69.4158 320.905C71.8383 321.089 74.2348 321.5 76.5695 322.13C80.0271 323.086 83.3908 324.315 86.624 325.806C90.2993 327.447 94.1977 329.481 98.3587 331.515C102.23 333.461 106.269 335.101 110.435 336.415C113.784 337.596 117.362 338.101 120.935 337.898C123.33 337.57 125.635 336.813 127.721 335.668C128.47 335.276 129.034 334.958 129.428 334.737C129.822 334.516 130.124 334.431 130.124 334.431Z" fill="white"/>
<path d="M127 301.4H126.514L125.123 301.339C123.915 301.278 122.169 301.155 120.017 300.959C108.804 299.905 97.7782 297.534 87.2017 293.902C85.1671 293.204 83.5395 292.604 82.4238 292.163L81.1112 291.648L80.6649 291.452L81.1374 291.599L82.45 292.064C83.5789 292.481 85.2196 293.057 87.2541 293.731C97.8587 297.272 108.873 299.636 120.069 300.775C122.209 300.996 124.007 301.155 125.149 301.241L126.54 301.351L127 301.4Z" fill="white"/>
<path d="M172.901 231.884C172.901 231.884 172.35 232.717 171.195 234.114C169.548 236.076 167.658 237.848 165.564 239.395C162.428 241.662 159.013 243.57 155.391 245.079C150.959 246.929 146.393 248.485 141.727 249.735C136.778 251.107 132.053 252.32 127.813 253.619C124.044 254.732 120.367 256.104 116.814 257.723C114.419 258.811 112.127 260.086 109.962 261.533C109.175 262.023 108.65 262.477 108.229 262.758C107.809 263.04 107.613 263.175 107.613 263.175C107.613 263.175 108.387 262.513 109.896 261.448C112.049 259.971 114.333 258.667 116.722 257.552C120.278 255.915 123.959 254.527 127.735 253.398C131.974 252.075 136.713 250.862 141.648 249.49C146.303 248.247 150.86 246.703 155.286 244.871C158.893 243.373 162.302 241.49 165.446 239.26C167.563 237.746 169.487 236.011 171.182 234.09C171.799 233.428 172.179 232.864 172.494 232.485C172.809 232.105 172.901 231.884 172.901 231.884Z" fill="white"/>
<path d="M304.227 241.012C304.227 241.012 304.03 240.926 303.662 240.73C303.295 240.534 302.796 240.24 302.087 239.909C300.133 238.936 298.096 238.116 295.997 237.459C292.875 236.481 289.681 235.715 286.441 235.168C282.792 234.518 278.736 234.016 274.483 233.453L252.72 230.573L246.157 229.667L244.359 229.409L243.742 229.299L244.372 229.36L246.171 229.569L252.733 230.39L274.51 233.195C278.762 233.747 282.818 234.261 286.48 234.923C289.725 235.479 292.919 236.266 296.036 237.275C298.143 237.954 300.181 238.807 302.127 239.823C303.518 240.546 304.227 241.012 304.227 241.012Z" fill="white"/>
<path d="M274.509 254.538C274.509 254.538 274.024 254.758 273.092 255.138C272.16 255.518 270.769 256.069 268.97 256.743C265.361 258.078 260.097 259.928 253.429 261.742C245.627 263.9 237.67 265.538 229.619 266.642C220.522 267.941 210.376 267.941 199.809 267.61C189.243 267.279 179.123 266.863 169.961 267.402C161.845 267.769 153.817 269.137 146.085 271.469C140.876 273.069 135.929 275.332 131.384 278.196C129.822 279.249 128.601 280.082 127.84 280.719C127.078 281.356 126.632 281.638 126.632 281.638C126.632 281.638 127.026 281.295 127.8 280.683C128.575 280.07 129.756 279.188 131.331 278.11C135.859 275.206 140.804 272.912 146.019 271.298C153.764 268.937 161.811 267.549 169.948 267.169C179.136 266.618 189.23 267.034 199.809 267.353C210.389 267.671 220.509 267.696 229.592 266.409C237.634 265.302 245.582 263.665 253.377 261.509C260.032 259.72 265.308 257.895 268.931 256.608C270.742 255.947 272.134 255.383 273.066 255.04L274.509 254.538Z" fill="white"/>
<path d="M294.618 266.52C294.547 266.569 294.467 266.606 294.382 266.63L293.686 266.863C293.083 267.071 292.203 267.341 291.061 267.635C288.186 268.401 285.217 268.813 282.228 268.86C279.234 268.862 276.257 268.45 273.394 267.635C272.291 267.328 271.412 267.047 270.769 266.826L270.086 266.569L269.85 266.458H270.112L270.808 266.667C271.412 266.863 272.291 267.12 273.433 267.402C276.292 268.146 279.247 268.517 282.214 268.505C285.188 268.425 288.14 268.013 291.009 267.279C292.098 266.998 292.991 266.765 293.634 266.581L294.33 266.397L294.618 266.52Z" fill="white"/>
<path d="M253.206 301.192C253.206 301.192 246.905 302.417 236.628 303.863C231.482 304.586 225.339 305.296 218.501 305.933C211.662 306.57 204.062 307.048 196.187 307.33C188.311 307.612 180.698 307.587 173.872 307.452C167.047 307.318 160.746 306.975 155.627 306.607C145.258 305.872 138.892 305.063 138.892 305.063L140.047 305.149L143.381 305.455C146.269 305.737 150.456 306.08 155.64 306.423C160.825 306.766 167.008 307.048 173.872 307.207C180.737 307.367 188.311 307.33 196.187 307.073C204.062 306.815 211.636 306.289 218.501 305.7C225.366 305.112 231.482 304.377 236.628 303.679C241.773 302.981 245.921 302.368 248.783 301.89L252.077 301.351L253.206 301.192Z" fill="white"/>
<path d="M304.607 297.712H304.135H302.822C301.628 297.712 299.908 297.712 297.782 297.712C293.529 297.712 287.649 297.553 281.191 297.039C274.733 296.524 268.892 295.703 264.717 294.993C262.617 294.65 260.937 294.331 259.769 294.098L258.456 293.829L257.997 293.718H258.469L259.782 293.939L264.731 294.76C268.918 295.421 274.733 296.205 281.191 296.72C287.649 297.235 293.529 297.406 297.769 297.467H302.809H304.122L304.607 297.712Z" fill="white"/>
<path d="M239.069 348.214C239.069 348.214 238.689 348.287 237.993 348.373L234.895 348.777C233.583 348.961 231.903 349.169 229.973 349.292C228.044 349.414 225.865 349.66 223.41 349.696C220.955 349.733 218.33 349.905 215.534 349.856C214.104 349.856 212.634 349.856 211.111 349.856L206.425 349.709C200.006 349.476 192.971 349.022 185.594 348.483C178.217 347.944 171.155 347.258 164.789 346.903C158.423 346.548 152.622 346.278 147.726 346.352H144.273L141.189 346.499C139.272 346.572 137.605 346.658 136.267 346.817L133.156 347.099L132.066 347.185C132.066 347.185 132.447 347.123 133.156 347.05L136.253 346.707C137.566 346.535 139.259 346.45 141.189 346.352L144.273 346.192H147.726C152.582 346.107 158.371 346.327 164.789 346.695C171.208 347.062 178.217 347.675 185.594 348.251C192.971 348.826 200.033 349.304 206.412 349.562L211.085 349.721C212.607 349.721 214.077 349.721 215.508 349.721C218.357 349.721 221.008 349.66 223.384 349.598C225.76 349.537 227.991 349.329 229.947 349.218C231.903 349.108 233.517 348.924 234.869 348.753L237.967 348.398L239.069 348.214Z" fill="white"/>
<path d="M316.316 333.83L315.738 333.916L314.058 334.075C312.614 334.222 310.501 334.382 307.902 334.553C302.651 334.884 295.472 335.117 287.504 334.933C279.537 334.749 272.33 334.137 267.146 333.549C264.521 333.255 262.46 332.985 261.016 332.777L259.362 332.532L258.784 332.421L259.362 332.483L261.029 332.679C262.473 332.862 264.573 333.107 267.172 333.377C272.357 333.916 279.537 334.48 287.504 334.676C295.472 334.872 302.678 334.676 307.889 334.369C310.514 334.235 312.601 334.088 314.058 333.977L315.725 333.855L316.316 333.83Z" fill="white"/>
<path d="M317.248 378.353L315.331 378.255C314.019 378.255 312.22 378.01 309.831 377.949C305.054 377.716 298.136 377.667 289.591 378.059C281.046 378.451 270.926 379.394 259.716 380.779C248.507 382.163 236.221 383.964 223.318 385.483C211.132 387.017 198.86 387.889 186.565 388.093C176.541 388.253 166.521 387.576 156.625 386.071C149.956 385.045 143.392 383.496 137.002 381.44C135.86 381.11 134.875 380.754 134.022 380.436L131.843 379.627C130.675 379.198 130.071 378.953 130.071 378.953L131.869 379.578L134.048 380.362C134.901 380.681 135.899 381.024 137.041 381.355C143.437 383.369 150 384.886 156.664 385.888C166.55 387.362 176.556 388.022 186.565 387.86C198.861 387.629 211.132 386.738 223.318 385.189C236.247 383.633 248.533 381.845 259.756 380.497C270.979 379.149 281.072 378.243 289.591 377.838C296.334 377.517 303.089 377.517 309.831 377.838C314.609 378.096 317.248 378.353 317.248 378.353Z" fill="white"/>
<path d="M245.068 424.101C245.068 424.101 238.754 425.105 228.464 426.134C223.331 426.649 217.188 427.115 210.363 427.482C203.537 427.85 196.003 428.021 188.114 427.984C180.226 427.948 172.704 427.605 165.879 427.188C159.053 426.772 152.923 426.183 147.791 425.595C137.514 424.37 131.226 423.341 131.226 423.341L132.381 423.476L135.676 423.929C137.094 424.137 138.852 424.37 140.926 424.603C143 424.836 145.284 425.167 147.844 425.412C152.989 425.975 159.119 426.514 165.931 426.955C172.744 427.396 180.265 427.654 188.154 427.727C196.042 427.801 203.564 427.568 210.389 427.249C217.215 426.931 223.344 426.453 228.49 425.951C231.115 425.73 233.386 425.448 235.42 425.24C237.455 425.032 239.214 424.811 240.671 424.627L243.965 424.223L245.068 424.101Z" fill="white"/>
<path d="M316.513 415.328C316.513 415.328 316.263 415.414 315.804 415.537L313.796 416.112C312.037 416.603 309.49 417.276 306.327 418.073C300.013 419.653 291.206 421.613 281.387 423.292C271.569 424.97 262.578 426.061 256.067 426.673C252.812 426.98 250.174 427.188 248.349 427.31L246.249 427.445H245.514L246.236 427.36L248.336 427.176C250.161 427.029 252.799 426.784 256.041 426.453C262.604 425.791 271.517 424.689 281.335 423.01C291.153 421.332 299.948 419.396 306.274 417.852C309.438 417.093 311.984 416.443 313.743 415.978L315.778 415.451L316.513 415.328Z" fill="white"/>
<path d="M194.992 475.178C191.609 475.668 188.2 475.983 184.78 476.121C181.617 476.28 177.837 476.293 173.636 476.121C164.534 475.715 155.515 474.304 146.767 471.919C142.738 470.804 139.167 469.64 136.267 468.525C133.084 467.346 129.969 466.012 126.934 464.531L127.59 464.801L129.441 465.597C130.242 465.952 131.226 466.381 132.394 466.822C133.563 467.263 134.849 467.827 136.332 468.341C139.272 469.444 142.895 470.583 146.833 471.686C151.206 472.839 155.639 473.78 160.116 474.504C164.6 475.166 169.117 475.616 173.649 475.852C177.837 476.023 181.604 476.035 184.767 475.852C186.355 475.852 187.786 475.692 189.046 475.619C190.306 475.545 191.369 475.435 192.262 475.349L194.283 475.153L194.992 475.178Z" fill="white"/>
<path d="M321.264 472.054L319.952 472.274L316.198 472.838C312.942 473.316 308.217 473.989 302.376 474.761C290.694 476.317 274.509 478.253 256.592 479.919C238.676 481.586 222.386 482.639 210.652 483.252C204.758 483.558 199.98 483.779 196.685 483.901L192.892 484.036H191.579L192.892 483.962L196.685 483.779L210.638 483.056C222.452 482.394 238.675 481.291 256.579 479.637C274.483 477.984 290.707 476.072 302.363 474.565L316.198 472.715L319.952 472.201L321.264 472.054Z" fill="white"/>
<path d="M328.142 517.176C328.142 517.176 325.281 517.74 320.044 518.536C314.806 519.333 307.219 520.325 297.729 521.06C286.662 521.902 275.553 522.156 264.455 521.82C251.92 521.44 238.203 520.129 223.856 518.487C209.51 516.846 195.832 515.192 183.35 514.285C172.294 513.395 161.189 513.162 150.101 513.587C142.615 513.912 135.16 514.706 127.787 515.964C125.162 516.429 123.167 516.821 121.815 517.127L119.741 517.568C119.741 517.568 120.45 517.385 121.802 517.078C123.154 516.772 125.162 516.356 127.761 515.853C135.129 514.553 142.585 513.734 150.075 513.403C161.165 512.938 172.276 513.147 183.336 514.028C195.845 514.934 209.51 516.588 223.856 518.23C238.203 519.872 251.92 521.183 264.442 521.563C275.53 521.916 286.63 521.683 297.69 520.864C307.128 520.154 314.754 519.186 320.004 518.414C322.629 518.022 324.651 517.716 326.029 517.483L328.142 517.176Z" fill="white"/>
<path d="M366.654 265.442C366.654 265.442 366.273 266.41 365.42 268.1C364.19 270.477 362.759 272.759 361.141 274.924C358.734 278.126 356.103 281.175 353.265 284.052C350.089 287.335 346.44 290.79 342.765 294.539C339.255 298.027 336.051 301.771 333.183 305.737C330.846 308.979 328.954 312.482 327.552 316.164C326.595 318.672 325.974 321.281 325.701 323.931C325.57 324.85 325.609 325.585 325.57 326.075C325.53 326.565 325.57 326.822 325.57 326.822C325.535 325.854 325.561 324.884 325.648 323.919C325.873 321.279 326.46 318.677 327.394 316.176C328.779 312.473 330.663 308.949 332.999 305.688C335.867 301.7 339.076 297.935 342.594 294.429C346.295 290.692 349.958 287.237 353.095 283.966C355.926 281.101 358.556 278.068 360.97 274.888C362.606 272.743 364.058 270.482 365.315 268.125C365.788 267.292 366.063 266.618 366.299 266.177C366.536 265.736 366.654 265.442 366.654 265.442Z" fill="white"/>
<path d="M306.196 286.551L306.642 286.245L307.955 285.412C309.11 284.713 310.724 283.635 312.667 282.239C314.609 280.842 316.854 279.102 319.23 277.044C321.79 274.801 324.222 272.433 326.515 269.95C328.779 267.44 330.904 264.823 332.881 262.109C334.666 259.585 336.175 257.208 337.33 255.236C338.486 253.263 339.378 251.56 339.956 250.335L340.625 249L340.875 248.534C339.889 250.853 338.767 253.119 337.514 255.322C336.372 257.355 334.889 259.708 333.091 262.232C331.134 264.967 329.013 267.598 326.738 270.109C324.439 272.603 321.994 274.975 319.414 277.215C317.011 279.261 314.767 281.013 312.851 282.386C310.718 283.89 308.496 285.281 306.196 286.551Z" fill="white"/>
<path d="M212.384 343.84C212.481 343.78 212.587 343.735 212.699 343.705L213.644 343.362C214.497 343.093 215.692 342.603 217.228 341.941C221.497 339.933 225.414 337.331 228.844 334.222C233.901 329.587 238.363 324.419 242.141 318.822C246.882 312.029 251.212 304.994 255.109 297.749C262.101 284.538 268.238 270.947 273.486 257.049C275.546 251.732 277.148 247.395 278.277 244.418L279.589 240.975C279.734 240.607 279.852 240.326 279.944 240.081C280.036 239.836 280.075 239.787 280.075 239.787C280.068 239.895 280.046 240.002 280.009 240.105C279.93 240.35 279.825 240.644 279.707 241.012C279.432 241.857 279.038 243.021 278.526 244.491C277.489 247.505 275.901 251.842 273.932 257.196C268.802 271.163 262.703 284.804 255.674 298.031C251.77 305.297 247.418 312.345 242.64 319.141C238.807 324.752 234.278 329.921 229.146 334.541C225.668 337.649 221.68 340.217 217.333 342.149C216.15 342.66 214.936 343.106 213.697 343.485L212.725 343.766C212.616 343.807 212.501 343.832 212.384 343.84Z" fill="#455A64"/>
<path d="M210.192 369.764C210.408 369.57 210.646 369.398 210.901 369.25L213.027 367.89C214.852 366.665 217.49 364.937 220.667 362.671C227.033 358.15 235.394 351.399 244.372 343.693C248.887 339.846 253.206 336.207 256.934 332.728C260.266 329.669 263.363 326.393 266.201 322.926C268.104 320.58 269.798 318.093 271.267 315.49C271.819 314.583 272.16 313.836 272.422 313.346C272.547 313.091 272.692 312.845 272.855 312.61C272.79 312.886 272.688 313.154 272.554 313.407C272.317 313.909 272.015 314.632 271.49 315.6C270.106 318.265 268.458 320.804 266.568 323.184C263.783 326.715 260.711 330.041 257.38 333.132C253.652 336.66 249.347 340.311 244.832 344.159C237.22 350.821 229.251 357.118 220.955 363.026C217.739 365.268 215.062 366.959 213.172 368.098C212.24 368.674 211.491 369.078 210.993 369.323C210.737 369.487 210.469 369.634 210.192 369.764Z" fill="#455A64"/>
<path d="M174.752 500.747L174.909 500.465C175.054 500.269 175.224 500.012 175.434 499.693C175.894 499.007 176.603 498.027 177.548 496.777C179.451 494.327 182.378 490.811 186.237 486.719C194.021 478.559 204.915 467.447 216.926 455.134L247.785 423.709L257.196 414.226L259.821 411.665L260.504 411.016C260.661 410.869 260.74 410.795 260.753 410.808C260.766 410.82 260.688 410.893 260.556 411.053L259.913 411.751L257.446 414.385C255.214 416.688 252.064 419.972 248.192 423.99L217.464 455.551L186.565 487.001C182.627 491.056 179.687 494.486 177.731 496.925C176.747 498.15 176.012 499.105 175.513 499.755L174.949 500.502C174.897 500.593 174.831 500.675 174.752 500.747Z" fill="#455A64"/>
<path d="M297.296 280.548C297.083 279.94 296.921 279.317 296.81 278.686C296.666 278.085 296.509 277.338 296.39 276.468C296.272 275.598 296.075 274.606 296.023 273.503C295.97 272.401 295.826 271.188 295.839 269.828C295.852 268.468 295.839 267.132 295.944 265.662C296.4 259.313 298.062 253.09 300.853 247.285C301.523 245.962 302.166 244.7 302.848 243.609C303.531 242.519 304.161 241.428 304.83 240.497C305.5 239.566 306.143 238.745 306.642 238.047C307.102 237.43 307.597 236.837 308.125 236.27C308.524 235.763 308.962 235.284 309.438 234.837C309.098 235.395 308.707 235.923 308.269 236.418C307.876 236.908 307.39 237.508 306.891 238.243C306.392 238.978 305.749 239.774 305.172 240.693C304.594 241.612 303.859 242.666 303.268 243.818C302.678 244.969 301.956 246.268 301.352 247.493C298.641 253.27 296.999 259.434 296.495 265.723C296.417 267.169 296.298 268.541 296.325 269.828C296.351 271.114 296.325 272.278 296.43 273.418C296.535 274.557 296.614 275.5 296.705 276.37C296.797 277.24 296.902 277.987 297.007 278.6C297.171 279.239 297.268 279.891 297.296 280.548Z" fill="#455A64"/>
<path d="M316.394 324.507C316.237 324.507 313.874 319.704 311.144 313.627C308.414 307.551 306.314 302.601 306.471 302.503C308.416 306.045 310.169 309.676 311.722 313.382C313.487 317.012 315.047 320.725 316.394 324.507Z" fill="#455A64"/>
<path d="M128.811 285.657C128.706 285.718 127.682 283.966 125.753 281.307C120.712 274.367 114.198 268.467 106.615 263.971C103.714 262.256 101.811 261.349 101.863 261.251C102.347 261.383 102.813 261.564 103.255 261.791C104.134 262.17 105.368 262.783 106.864 263.604C110.75 265.768 114.353 268.346 117.601 271.286C120.843 274.236 123.71 277.525 126.146 281.087C127.065 282.459 127.761 283.599 128.194 284.407C128.445 284.803 128.652 285.222 128.811 285.657Z" fill="#455A64"/>
<path d="M180.33 256.694C180.255 256.289 180.255 255.874 180.33 255.469C180.553 253.166 181.614 251.005 183.336 249.343L183.415 249.27V249.355C183.509 249.526 183.579 249.707 183.625 249.894C183.625 249.894 183.481 249.735 183.297 249.417H183.415C182.564 250.355 181.869 251.409 181.354 252.541C180.808 253.874 180.464 255.272 180.33 256.694Z" fill="#455A64"/>
<path d="M197.709 265.123C197.543 264.732 197.45 264.318 197.434 263.898C197.319 262.894 197.346 261.881 197.512 260.884C197.68 259.888 197.984 258.916 198.418 257.993C198.575 257.604 198.797 257.24 199.074 256.915C198.482 258.206 198.042 259.553 197.762 260.933C197.585 262.324 197.567 263.729 197.709 265.123Z" fill="#455A64"/>
<path d="M216.65 263.702C216.589 262.559 216.422 261.424 216.151 260.308C215.785 259.21 215.306 258.147 214.721 257.135C214.984 257.375 215.205 257.652 215.377 257.956C215.831 258.668 216.18 259.435 216.414 260.235C216.641 261.035 216.76 261.858 216.768 262.685C216.792 263.028 216.752 263.372 216.65 263.702Z" fill="#455A64"/>
<path d="M233.215 256.927C232.657 255.838 231.998 254.796 231.246 253.815C230.406 252.898 229.484 252.05 228.49 251.279C228.846 251.414 229.178 251.6 229.474 251.83C230.215 252.357 230.881 252.971 231.456 253.655C232.028 254.344 232.504 255.097 232.874 255.897C233.046 256.221 233.161 256.569 233.215 256.927Z" fill="#455A64"/>
<path d="M244.622 246.427C244.2 245.138 243.416 243.979 242.351 243.07C241.245 242.21 239.904 241.654 238.479 241.465C238.479 241.465 238.61 241.465 238.833 241.465C239.147 241.475 239.459 241.512 239.765 241.575C240.788 241.803 241.738 242.257 242.535 242.899C243.333 243.537 243.95 244.349 244.333 245.263C244.456 245.534 244.544 245.818 244.595 246.108C244.619 246.213 244.628 246.32 244.622 246.427Z" fill="#455A64"/>
<path d="M250.725 227.033C249.716 226.279 248.535 225.751 247.273 225.489C245.993 225.306 244.684 225.407 243.453 225.783C244.639 225.205 245.997 225.011 247.314 225.233C248.631 225.455 249.831 226.079 250.725 227.008V227.033Z" fill="#455A64"/>
<path d="M168.937 243.621C168.962 243.258 169.056 242.901 169.213 242.568C169.912 240.926 171.234 239.583 172.927 238.794C173.27 238.62 173.644 238.504 174.03 238.451C172.84 238.932 171.772 239.641 170.895 240.531C170.018 241.422 169.351 242.475 168.937 243.621Z" fill="#455A64"/>
<path d="M164.789 230.708C164.947 230.349 165.169 230.018 165.446 229.728C166.06 228.981 166.8 228.331 167.638 227.804C168.475 227.268 169.396 226.854 170.368 226.579C170.76 226.451 171.173 226.385 171.589 226.383C168.86 227.038 166.458 228.553 164.789 230.671V230.708Z" fill="#455A64"/>
<path d="M132.158 306.007C132.158 306.007 132.158 305.933 132.079 306.007C132.024 306.133 131.984 306.265 131.961 306.399C131.896 306.779 131.83 307.33 131.751 308.053C131.594 309.486 131.423 311.569 131.239 314.179C130.859 319.337 130.425 326.43 130.019 334.357C129.612 342.284 129.297 349.378 129.113 354.548C129.021 356.998 128.955 359.13 128.903 360.674C128.903 361.335 128.903 361.899 128.824 362.34C128.844 362.532 128.844 362.724 128.824 362.916C128.766 362.729 128.744 362.534 128.758 362.34C128.758 361.887 128.758 361.335 128.758 360.674C128.758 359.228 128.758 357.133 128.758 354.548C128.758 349.378 129.047 342.223 129.467 334.333C129.887 326.443 130.386 319.312 130.885 314.154C131.134 311.569 131.384 309.486 131.62 308.028C131.738 307.318 131.856 306.803 131.961 306.387C131.997 306.239 132.06 306.099 132.145 305.97C132.145 305.86 132.184 306.031 132.158 306.007Z" fill="#263238"/>
<path d="M276.78 58.5356C265.833 55.4114 254.466 64.5634 243.178 62.5051C236.352 61.2799 231.207 56.171 225.13 53.0101C216.059 48.2809 203.222 47.5091 193.955 51.9074C184.688 56.3058 178.69 60.9859 177.443 70.6279C169.003 66.1071 154.932 76.0187 150.141 85.5872C145.35 95.1558 146.544 105.031 149.261 115.285C153.982 132.972 162.375 149.622 173.964 164.292C174.988 165.591 176.59 167.024 178.178 166.338C178.667 166.018 179.07 165.595 179.352 165.104C179.635 164.612 179.79 164.065 179.805 163.508C181.42 154.135 180.147 144.567 179.267 135.108C178.388 125.65 177.955 115.898 181.171 106.93C184.386 97.9614 191.934 89.7038 201.91 87.866C209.286 86.5061 216.939 88.7359 223.489 92.1786C230.039 95.6213 235.801 100.203 242.036 104.112C248.271 108.02 255.28 111.316 262.788 111.61C270.296 111.904 278.355 108.62 281.545 102.274C284.735 95.9276 281.164 86.9104 273.814 85.4525C277.237 85.1725 280.448 83.7881 282.896 81.5373C285.344 79.2865 286.875 76.3099 287.226 73.1195C287.578 69.929 286.727 66.724 284.82 64.0557C282.914 61.3874 280.071 59.4224 276.78 58.4988V58.5356Z" fill="#263238"/>
<path d="M243.007 222.892L241.944 202.64C241.944 202.64 270.585 197.518 269.942 170.626C269.627 157.651 266.634 130.955 263.641 106.832C262.098 94.3122 255.558 82.7952 245.324 74.5756C235.09 66.3561 221.913 62.0375 208.42 62.4806L205.637 62.5664C175.75 65.1882 161.416 90.3531 165.052 118.177L171.943 226.481C172.498 235.24 176.744 243.438 183.753 249.284C190.762 255.131 199.965 258.151 209.352 257.686C218.75 257.217 227.567 253.293 233.874 246.773C240.181 240.252 243.465 231.666 243.007 222.892Z" fill="#FFBE9D"/>
<path d="M241.983 202.64C241.983 202.64 223.83 204.612 204.062 193.904C204.062 193.904 213.67 212.968 242.311 209.599L241.983 202.64Z" fill="#EB996E"/>
<path d="M253.941 125.025C253.985 126.024 253.611 126.999 252.898 127.744C252.185 128.49 251.189 128.947 250.121 129.019C249.6 129.075 249.071 129.033 248.567 128.896C248.063 128.758 247.594 128.528 247.187 128.219C246.779 127.909 246.443 127.527 246.196 127.094C245.949 126.662 245.798 126.187 245.75 125.699C245.7 124.7 246.069 123.722 246.78 122.973C247.492 122.225 248.488 121.765 249.557 121.693C250.081 121.635 250.611 121.676 251.118 121.814C251.624 121.951 252.096 122.182 252.505 122.493C252.913 122.804 253.251 123.188 253.498 123.623C253.745 124.058 253.895 124.535 253.941 125.025Z" fill="#263238"/>
<path d="M257.945 120.137C257.446 120.651 254.256 118.605 249.833 118.765C245.409 118.924 242.246 121.093 241.747 120.602C241.498 120.382 241.983 119.463 243.362 118.458C245.227 117.156 247.478 116.424 249.806 116.363C252.11 116.279 254.382 116.884 256.291 118.091C257.695 119.01 258.181 119.904 257.945 120.137Z" fill="#263238"/>
<path d="M210.468 127.904C210.515 128.905 210.142 129.883 209.429 130.631C208.716 131.379 207.718 131.838 206.648 131.911C206.126 131.967 205.598 131.925 205.094 131.787C204.59 131.65 204.121 131.419 203.713 131.11C203.306 130.801 202.969 130.418 202.723 129.986C202.476 129.553 202.325 129.079 202.277 128.591C202.23 127.59 202.603 126.612 203.316 125.864C204.029 125.116 205.027 124.657 206.097 124.584C206.619 124.528 207.147 124.57 207.651 124.708C208.155 124.845 208.624 125.076 209.032 125.385C209.439 125.694 209.776 126.077 210.022 126.509C210.269 126.942 210.42 127.416 210.468 127.904Z" fill="#263238"/>
<path d="M214.471 122.33C213.986 122.845 210.783 120.799 206.359 120.958C201.936 121.117 198.773 123.286 198.274 122.796C198.024 122.575 198.51 121.656 199.888 120.652C201.758 119.349 204.014 118.617 206.346 118.556C208.646 118.473 210.913 119.078 212.817 120.284C214.222 121.215 214.721 122.097 214.471 122.33Z" fill="#263238"/>
<path d="M231.679 152.408C231.679 152.163 234.383 151.636 238.82 150.962C239.949 150.815 241.012 150.57 241.183 149.835C241.23 148.743 240.923 147.663 240.303 146.735C239.148 144.224 237.941 141.577 236.667 138.821C231.588 127.537 227.873 118.238 228.372 117.993C228.87 117.748 233.36 126.802 238.426 138.086C239.66 140.863 240.828 143.521 241.931 146.061C242.689 147.309 242.954 148.766 242.679 150.178C242.529 150.555 242.289 150.895 241.978 151.173C241.666 151.451 241.291 151.66 240.881 151.783C240.259 151.962 239.615 152.065 238.964 152.089C234.488 152.567 231.706 152.677 231.679 152.408Z" fill="#263238"/>
<path d="M218.763 155.728C219.485 155.654 219.669 160.139 223.896 163.189C228.122 166.24 233.215 165.578 233.281 166.203C233.359 166.485 232.178 167.11 230.012 167.232C227.183 167.38 224.391 166.58 222.137 164.978C220.005 163.441 218.594 161.193 218.199 158.705C217.95 156.831 218.435 155.704 218.763 155.728Z" fill="#263238"/>
<path d="M214.13 101.159C213.736 102.286 209.3 101.906 204.128 102.654C198.956 103.401 194.808 104.871 194.087 103.879C193.758 103.401 194.441 102.323 196.095 101.184C198.303 99.772 200.827 98.8505 203.476 98.4895C206.124 98.1285 208.825 98.3376 211.373 99.1008C213.29 99.7256 214.287 100.62 214.13 101.159Z" fill="#263238"/>
<path d="M255.871 108.302C255.122 109.257 252.038 108.388 248.376 108.461C244.714 108.535 241.629 109.319 240.868 108.351C240.539 107.885 240.999 106.93 242.325 105.998C244.088 104.846 246.196 104.241 248.349 104.271C250.493 104.2 252.607 104.752 254.4 105.851C255.726 106.819 256.199 107.763 255.871 108.302Z" fill="#263238"/>
<path d="M168.189 138C167.69 137.816 148.198 133.185 149.511 151.477C150.823 169.768 170.302 164.806 170.302 164.28C170.302 163.753 168.189 138 168.189 138Z" fill="#FFBE9D"/>
<path d="M163.752 157.762C163.66 157.762 163.424 158.007 162.86 158.289C162.079 158.681 161.164 158.769 160.313 158.534C158.174 157.946 156.205 154.981 155.877 151.673C155.714 150.104 155.929 148.522 156.507 147.042C156.647 146.454 156.939 145.908 157.358 145.451C157.777 144.994 158.309 144.64 158.909 144.42C159.295 144.297 159.716 144.304 160.097 144.441C160.479 144.577 160.797 144.834 160.996 145.167C161.298 145.669 161.193 146.037 161.298 146.061C161.403 146.086 161.705 145.731 161.482 144.983C161.338 144.537 161.038 144.148 160.628 143.881C160.057 143.538 159.365 143.415 158.699 143.538C157.902 143.735 157.174 144.121 156.583 144.657C155.992 145.193 155.559 145.863 155.325 146.6C154.605 148.244 154.326 150.028 154.512 151.795C154.905 155.471 157.137 158.815 160.077 159.403C160.615 159.515 161.172 159.512 161.708 159.396C162.244 159.279 162.745 159.051 163.175 158.73C163.752 158.215 163.818 157.799 163.752 157.762Z" fill="#EB996E"/>
<path d="M269.522 100.951C263.202 102.687 256.531 102.998 250.057 101.859C243.583 100.719 237.492 98.1615 232.283 94.3962C225.064 89.079 219.367 81.2869 210.494 79.0449C207.471 78.4002 204.341 78.3227 201.285 78.817C198.23 79.3112 195.31 80.3674 192.695 81.924C187.477 85.0613 183.009 89.1695 179.569 93.9919C185.647 107.469 182.483 122.845 179.228 137.142C179.049 138.766 178.296 140.287 177.088 141.467C174.831 143.207 171.287 142.018 169.213 140.107C165.839 137.032 164.409 132.585 163.424 128.297C160.986 118.523 160.66 108.393 162.466 98.5005C164.314 88.5741 169.243 79.3725 176.642 72.0369C186.276 63.1179 199.249 58.0474 212.817 57.8985C226.315 57.8454 239.487 61.7636 250.463 69.0965C255.556 72.429 260.281 76.4475 263.037 81.7035" fill="#263238"/>
<path d="M285.286 64.7472C285.369 65.2839 285.328 65.831 285.168 66.3521C284.752 67.8687 283.833 69.2238 282.543 70.2237C280.473 71.7687 277.931 72.6609 275.284 72.772C273.657 72.9065 272.018 72.8654 270.401 72.6495C268.543 72.416 266.788 71.7175 265.321 70.628C264.496 70.0188 263.831 69.242 263.376 68.3567C262.921 67.4714 262.689 66.5009 262.696 65.519C262.8 64.4503 263.225 63.4306 263.921 62.5768C264.618 61.723 265.558 61.0697 266.634 60.6919C267.75 60.2592 268.959 60.0746 270.165 60.1528C271.419 60.269 272.61 60.7246 273.591 61.4637C274.577 62.2418 275.371 63.2095 275.919 64.3006C276.467 65.3917 276.757 66.5805 276.767 67.7856C276.815 70.3285 275.792 72.7873 273.919 74.6343C272.007 76.5233 269.593 77.9057 266.923 78.6406C261.515 80.221 255.477 79.4614 250.043 77.4889C244.77 75.4656 239.767 72.8797 235.132 69.7826C230.86 66.9553 226.342 64.4676 221.625 62.3459C217.374 60.4518 212.694 59.548 207.987 59.7117C203.905 59.9891 199.939 61.1018 196.37 62.9707C191.167 65.7362 186.81 69.7015 183.717 74.4873C182.841 75.7569 182.039 77.0697 181.315 78.42C181.092 78.9099 180.834 79.3848 180.541 79.8412C180.564 79.7054 180.609 79.5735 180.672 79.4492C180.764 79.2041 180.908 78.8243 181.131 78.3465C181.767 76.9358 182.509 75.5684 183.349 74.2545C186.359 69.3178 190.716 65.2132 195.977 62.3581C199.643 60.4115 203.728 59.2521 207.934 58.9644C212.782 58.7531 217.612 59.6489 222.006 61.574C226.793 63.7152 231.377 66.2318 235.709 69.0965C240.282 72.1421 245.209 74.6945 250.397 76.7048C255.713 78.6161 261.515 79.3512 266.66 77.8565C269.163 77.1259 271.417 75.7952 273.197 73.9972C274.891 72.3512 275.833 70.1541 275.822 67.8714C275.823 66.7852 275.572 65.7117 275.087 64.7242C274.602 63.7368 273.895 62.8587 273.013 62.1498C272.16 61.5205 271.139 61.1224 270.06 60.9992C268.981 60.876 267.886 61.0325 266.896 61.4515C265.944 61.7634 265.105 62.3197 264.476 63.0565C263.846 63.7933 263.453 64.6808 263.339 65.617C263.339 66.4962 263.55 67.3641 263.957 68.1571C264.363 68.9501 264.955 69.6479 265.689 70.1992C267.062 71.2221 268.702 71.886 270.44 72.1227C272.012 72.3517 273.606 72.4133 275.192 72.3065C277.796 72.2531 280.315 71.4294 282.385 69.9541C283.631 68.9988 284.545 67.7195 285.01 66.2786C285.137 65.7741 285.229 65.2626 285.286 64.7472Z" fill="#455A64"/>
<path d="M147.187 101.527C149.164 102.109 151.194 102.519 153.251 102.752C155.478 102.864 157.707 102.572 159.814 101.894C162.404 101.036 164.849 99.8354 167.073 98.329C171.092 95.5297 174.027 91.5865 175.434 87.0942C175.927 85.2063 176.291 83.2912 176.524 81.3604C176.667 81.8801 176.72 82.4178 176.681 82.9531C176.677 84.4079 176.478 85.8566 176.091 87.2657C174.833 92.0016 171.844 96.179 167.638 99.0763C165.338 100.655 162.793 101.895 160.09 102.752C157.863 103.436 155.505 103.674 153.173 103.45C151.616 103.284 150.095 102.904 148.657 102.323C148.121 102.141 147.623 101.871 147.187 101.527Z" fill="#455A64"/>
<path d="M148.579 114.795C148.579 114.624 150.915 115.028 154.63 114.709C159.458 114.325 164.087 112.738 168.033 110.113C171.979 107.488 175.098 103.921 177.062 99.7869C178.598 96.6137 178.939 94.4452 179.123 94.4819C179.159 94.997 179.106 95.5141 178.965 96.0134C178.677 97.3914 178.237 98.738 177.653 100.032C175.803 104.377 172.652 108.133 168.576 110.851C164.501 113.569 159.673 115.134 154.669 115.359C153.17 115.431 151.666 115.365 150.18 115.163C149.629 115.12 149.088 114.996 148.579 114.795Z" fill="#455A64"/>
<path d="M200.426 140.377C200.361 140.389 200.293 140.389 200.228 140.376C200.162 140.364 200.1 140.339 200.045 140.304C199.99 140.268 199.943 140.223 199.907 140.17C199.871 140.117 199.847 140.059 199.836 139.997C199.814 139.937 199.805 139.874 199.811 139.812C199.816 139.749 199.835 139.688 199.868 139.633C199.9 139.577 199.944 139.529 199.997 139.49C200.05 139.452 200.112 139.424 200.177 139.409C200.306 139.397 200.436 139.429 200.543 139.499C200.649 139.569 200.724 139.673 200.754 139.791C200.785 139.909 200.768 140.034 200.708 140.141C200.648 140.249 200.548 140.333 200.426 140.377Z" fill="#EB996E"/>
<path d="M208.88 138.306C208.738 138.305 208.601 138.26 208.49 138.177C208.379 138.094 208.302 137.979 208.27 137.85C208.238 137.721 208.254 137.586 208.314 137.467C208.375 137.347 208.477 137.25 208.604 137.191C208.749 137.18 208.893 137.221 209.008 137.305C209.122 137.389 209.198 137.51 209.221 137.645C209.267 137.775 209.258 137.916 209.194 138.04C209.13 138.163 209.017 138.259 208.88 138.306Z" fill="#EB996E"/>
<path d="M214.51 137.988C214.235 137.988 213.972 137.73 213.894 137.326C213.815 136.922 213.985 136.554 214.248 136.517C214.511 136.481 214.786 136.775 214.865 137.179C214.944 137.583 214.773 137.951 214.51 137.988Z" fill="#EB996E"/>
<path d="M204.771 145.192C204.509 145.192 204.272 145.081 204.272 144.922C204.272 144.763 204.482 144.616 204.745 144.616C205.007 144.616 205.244 144.726 205.244 144.885C205.244 145.045 205.047 145.179 204.771 145.192Z" fill="#EB996E"/>
<path d="M212.463 143.256C212.326 143.263 212.191 143.219 212.088 143.134C211.985 143.049 211.922 142.93 211.912 142.802C211.898 142.739 211.899 142.673 211.913 142.61C211.927 142.547 211.954 142.486 211.993 142.433C212.032 142.379 212.082 142.333 212.14 142.298C212.198 142.263 212.263 142.238 212.332 142.227C212.47 142.223 212.605 142.27 212.707 142.356C212.81 142.443 212.873 142.563 212.883 142.692C212.906 142.819 212.875 142.949 212.796 143.054C212.718 143.159 212.598 143.232 212.463 143.256Z" fill="#EB996E"/>
<path d="M252.655 137.436C252.587 137.449 252.518 137.448 252.451 137.435C252.384 137.422 252.32 137.396 252.264 137.36C252.207 137.323 252.16 137.276 252.123 137.222C252.086 137.168 252.062 137.107 252.051 137.044C252.029 136.984 252.02 136.92 252.025 136.857C252.031 136.793 252.05 136.731 252.082 136.675C252.114 136.619 252.158 136.569 252.211 136.529C252.265 136.49 252.326 136.461 252.392 136.444C252.526 136.428 252.662 136.459 252.773 136.53C252.885 136.601 252.964 136.709 252.997 136.831C253.029 136.953 253.012 137.083 252.949 137.194C252.886 137.306 252.781 137.392 252.655 137.436Z" fill="#EB996E"/>
<path d="M258.391 136.762C258.248 136.751 258.113 136.694 258.01 136.601C257.906 136.508 257.839 136.385 257.821 136.252C257.803 136.119 257.834 135.984 257.909 135.87C257.984 135.755 258.098 135.668 258.233 135.623C258.496 135.623 258.745 135.819 258.798 136.125C258.83 136.26 258.806 136.401 258.73 136.52C258.655 136.638 258.533 136.725 258.391 136.762Z" fill="#EB996E"/>
<path d="M247.562 137.706C247.479 137.713 247.395 137.698 247.321 137.663C247.247 137.627 247.185 137.572 247.144 137.504C247.102 137.437 247.083 137.36 247.087 137.282C247.091 137.204 247.12 137.129 247.169 137.066C247.218 137.003 247.285 136.955 247.363 136.926C247.441 136.898 247.526 136.892 247.607 136.908C247.689 136.923 247.764 136.961 247.824 137.015C247.883 137.07 247.924 137.14 247.942 137.216C247.958 137.327 247.927 137.44 247.856 137.531C247.786 137.622 247.68 137.685 247.562 137.706Z" fill="#EB996E"/>
<path d="M252.038 142.986C251.907 143.028 251.764 143.022 251.638 142.97C251.511 142.917 251.41 142.823 251.355 142.704C251.32 142.648 251.297 142.586 251.288 142.522C251.279 142.457 251.284 142.392 251.302 142.329C251.321 142.266 251.352 142.208 251.395 142.156C251.438 142.105 251.491 142.062 251.552 142.031C251.682 142 251.819 142.012 251.94 142.066C252.061 142.119 252.158 142.209 252.216 142.322C252.273 142.435 252.286 142.563 252.254 142.684C252.222 142.805 252.145 142.912 252.038 142.986Z" fill="#EB996E"/>
<path d="M256.921 141.896C256.862 141.888 256.805 141.87 256.754 141.842C256.703 141.814 256.658 141.776 256.623 141.732C256.587 141.687 256.562 141.636 256.547 141.583C256.533 141.529 256.531 141.473 256.54 141.418C256.582 141.313 256.665 141.228 256.773 141.18C256.881 141.132 257.004 141.125 257.118 141.161C257.234 141.176 257.339 141.233 257.41 141.321C257.482 141.408 257.513 141.518 257.498 141.626C257.459 141.733 257.377 141.821 257.269 141.872C257.161 141.922 257.036 141.931 256.921 141.896Z" fill="#EB996E"/>
<path d="M247.181 447.232L246.866 419.996C246.866 419.996 227.4 394.819 235.053 367.51C235.053 367.51 247.746 359.179 281.781 364.055C281.781 364.055 324.506 325.205 381.775 335.092C439.044 344.979 444.373 391.548 444.924 404.228C445.475 416.909 445.344 441.535 425.629 465.609L424.316 489.5C424.316 489.5 419.617 498.493 406.032 497.88C392.447 497.267 393.208 495.43 393.208 495.43C393.208 495.43 376.144 508.282 375.409 511.639C374.674 514.996 371.996 527.725 371.996 527.725C371.996 527.725 366.076 535.235 353.305 536.117C348.253 536.452 343.2 535.486 338.696 533.324C336.987 532.517 335.468 531.4 334.226 530.039C332.984 528.678 332.045 527.1 331.463 525.397C330.243 521.626 328.182 518.138 325.415 515.163C322.648 512.188 319.239 509.793 315.41 508.135L306.589 505.978C306.589 505.978 303.032 509.005 290.654 510.242C278.277 511.479 278.224 507.387 278.224 507.387C278.224 507.387 258.968 511.541 244.503 493.91C233.084 479.968 226.875 454.889 247.181 447.232Z" fill="#BC6C25"/>
<path d="M365.893 448.8C366.086 448.508 366.301 448.23 366.536 447.967C366.969 447.428 367.612 446.644 368.413 445.614C370.027 443.568 372.285 440.542 374.779 436.634C377.681 432.052 380.2 427.268 382.313 422.324C383.508 419.531 384.623 416.554 385.608 413.429C386.592 410.305 387.419 406.924 386.553 403.628C385.511 400.434 383.275 397.695 380.253 395.909C377.466 394.165 374.482 392.715 371.353 391.585C366.055 389.632 360.486 388.395 354.814 387.909C350.99 387.571 347.14 387.571 343.316 387.909C342.003 388.019 340.914 388.142 340.192 388.24C339.834 388.31 339.469 388.347 339.103 388.35C339.454 388.246 339.814 388.168 340.179 388.117C340.875 387.983 341.925 387.811 343.29 387.664C347.126 387.219 351.002 387.149 354.854 387.456C360.608 387.86 366.266 389.062 371.642 391.021C374.822 392.149 377.856 393.608 380.686 395.37C383.847 397.238 386.178 400.11 387.249 403.457C388.168 406.973 387.249 410.477 386.29 413.601C385.332 416.725 384.151 419.727 382.93 422.545C380.785 427.505 378.213 432.295 375.238 436.867C373.23 439.944 371.039 442.913 368.675 445.761C367.835 446.778 367.153 447.538 366.693 448.04C366.454 448.317 366.186 448.572 365.893 448.8Z" fill="#263238"/>
<path d="M285.824 365.244C285.924 365.441 285.99 365.652 286.021 365.868C286.148 366.494 286.179 367.134 286.113 367.767C285.782 370.112 284.628 372.287 282.831 373.955C280.692 376.16 277.437 377.961 274.26 380.387C270.781 382.999 267.568 385.907 264.665 389.073C259.379 394.83 255.116 401.341 252.038 408.357C250.856 411.053 250.082 413.258 249.557 414.851C249.334 415.573 249.137 416.174 248.979 416.652C248.926 416.864 248.847 417.069 248.743 417.264C248.745 417.044 248.781 416.826 248.848 416.615C248.979 416.125 249.124 415.524 249.308 414.777C249.932 412.545 250.694 410.348 251.592 408.198C254.558 401.065 258.806 394.456 264.153 388.657C267.082 385.464 270.335 382.543 273.866 379.933C277.108 377.483 280.364 375.756 282.49 373.648C284.252 372.062 285.429 369.994 285.85 367.743C285.938 366.911 285.929 366.073 285.824 365.244Z" fill="#263238"/>
<g opacity="0.5">
<path opacity="0.5" d="M308.716 368.576L326.134 372.729C326.134 372.729 351.638 345.984 379.649 339.209L369.148 336.893C346.129 341.738 325.126 352.75 308.716 368.576Z" fill="black"/>
</g>
<path d="M373.965 337.923C351.06 342.73 330.219 353.823 314.124 369.777L308.716 368.552C308.716 368.552 333.419 343.252 369.161 336.869L373.965 337.923Z" fill="#BC6C25"/>
<g opacity="0.7">
<path opacity="0.7" d="M373.965 337.923C351.06 342.73 330.219 353.823 314.124 369.777L308.716 368.552C308.716 368.552 333.419 343.252 369.161 336.869L373.965 337.923Z" fill="black"/>
</g>
<path d="M238.767 452.782C248.415 439.893 272.619 443.838 283.658 455.428C294.697 467.018 299.593 482.97 292.413 496.716C289.342 502.585 283.461 507.743 276.465 507.62C279.956 503.965 282.457 499.583 283.759 494.84C285.06 490.097 285.125 485.131 283.947 480.36C281.702 470.743 275.205 462.252 266.988 456.077C262.827 452.941 258.141 449.498 252.812 449.008C247.483 448.518 243.217 448.371 238.767 452.782Z" fill="#BC6C25"/>
<g opacity="0.3">
<path opacity="0.3" d="M238.767 452.782C248.415 439.893 272.619 443.838 283.658 455.428C294.697 467.018 299.593 482.97 292.413 496.716C289.342 502.585 283.461 507.743 276.465 507.62C279.956 503.965 282.457 499.583 283.759 494.84C285.06 490.097 285.125 485.131 283.947 480.36C281.702 470.743 275.205 462.252 266.988 456.077C262.827 452.941 258.141 449.498 252.812 449.008C247.483 448.518 243.217 448.371 238.767 452.782Z" fill="black"/>
</g>
<g opacity="0.3">
<path opacity="0.3" d="M366.864 448.04C366.68 450.772 369.358 453.186 372.259 453.505C373.723 453.587 375.188 453.343 376.532 452.793C377.876 452.244 379.061 451.404 379.99 450.344C381.818 448.201 383.158 445.733 383.928 443.091C386.947 434.257 388.509 421.038 386.92 411.935C382.746 423.782 375.291 438.558 366.641 448.065" fill="black"/>
</g>
<g opacity="0.3">
<path opacity="0.3" d="M376.013 407.304C374.136 402.121 368.386 399.095 362.887 397.306C357.246 395.469 351.355 394.389 345.39 394.096C343.513 393.905 341.614 394.076 339.811 394.599C338.917 394.871 338.111 395.351 337.47 395.994C336.829 396.637 336.375 397.422 336.149 398.274C336.031 398.973 336.146 399.69 336.48 400.325C336.813 400.961 337.349 401.486 338.013 401.827C347.525 412.103 354.622 424.128 358.844 437.124C359.023 437.696 359.364 438.211 359.832 438.617C360.299 439.023 360.875 439.303 361.498 439.428C362.122 439.554 362.771 439.52 363.375 439.33C363.98 439.14 364.519 438.801 364.934 438.349C369.397 433.596 371.97 427.188 374.28 421.111C375.934 416.652 377.64 411.775 376.013 407.304Z" fill="black"/>
</g>
<g opacity="0.3">
<path opacity="0.3" d="M250.515 409.693C244.549 401.029 241.478 390.904 241.695 380.607C241.695 378.439 242.036 376.086 243.65 374.543C245.606 372.668 248.783 372.631 251.526 372.803C259.259 373.253 266.943 374.261 274.509 375.817C275.1 375.939 275.822 376.123 276.006 376.65C276.213 377.056 276.276 377.513 276.184 377.954C276.091 378.395 275.85 378.797 275.494 379.1C263.746 385.826 255.411 398.201 250.975 410.305" fill="black"/>
</g>
<path d="M235.88 368.478C235.905 369.096 235.874 369.715 235.788 370.328C235.683 371.553 235.565 373.232 235.486 375.351C235.087 383.924 236.241 392.498 238.899 400.712C239.791 403.395 240.723 405.76 241.616 407.72C242.508 409.68 243.283 411.236 243.847 412.29C244.18 412.826 244.453 413.392 244.661 413.981C244.264 413.487 243.913 412.962 243.611 412.413C242.968 411.383 242.128 409.84 241.183 407.892C240.074 405.614 239.11 403.279 238.295 400.896C237.323 397.966 236.543 394.983 235.958 391.964C234.968 386.491 234.646 380.93 235 375.388C235.145 373.268 235.328 371.541 235.525 370.365C235.578 369.727 235.697 369.095 235.88 368.478Z" fill="#FAFAFA"/>
<path d="M368.137 336.011C367.92 336.112 367.691 336.19 367.455 336.244L365.486 336.783C364.619 337.004 363.569 337.273 362.362 337.641C361.154 338.008 359.737 338.363 358.28 338.866C355.247 339.809 351.717 341.071 347.844 342.615C343.972 344.159 339.811 346.07 335.572 348.275C331.332 350.48 327.447 352.845 323.994 355.087C320.542 357.329 317.563 359.534 315.134 361.458C313.887 362.377 312.824 363.296 311.866 364.067C310.908 364.839 310.107 365.525 309.464 366.101L307.941 367.388C307.587 367.682 307.39 367.829 307.377 367.804C307.514 367.621 307.673 367.453 307.849 367.302L309.28 365.917C309.897 365.317 310.672 364.607 311.617 363.81C312.562 363.014 313.586 362.07 314.819 361.115C317.221 359.142 320.201 356.925 323.627 354.609C327.373 352.133 331.25 349.835 335.243 347.724C339.255 345.645 343.377 343.76 347.595 342.076C351.533 340.557 355.077 339.331 358.096 338.4C359.618 337.922 361.01 337.592 362.23 337.261C363.451 336.93 364.514 336.685 365.394 336.501L367.389 336.085C367.633 336.025 367.885 336 368.137 336.011Z" fill="#FAFAFA"/>
<path d="M383.455 400.749C383.35 400.859 381.368 398.972 377.562 396.706C375.329 395.39 372.985 394.246 370.552 393.288C367.583 392.128 364.508 391.222 361.364 390.58C355.618 389.403 349.711 389.068 343.854 389.588C339.365 390.017 336.648 390.715 336.609 390.58C337.228 390.363 337.864 390.191 338.512 390.066C340.238 389.648 341.992 389.341 343.762 389.147C349.675 388.479 355.667 388.753 361.482 389.955C364.676 390.61 367.797 391.545 370.802 392.749C373.255 393.743 375.606 394.944 377.824 396.338L379.137 397.184L380.279 398.029C380.9 398.459 381.488 398.93 382.038 399.438C382.547 399.839 383.021 400.277 383.455 400.749Z" fill="#FAFAFA"/>
<path d="M266.043 505.635C265.826 505.611 265.614 505.558 265.413 505.476C264.821 505.308 264.238 505.111 263.667 504.888C261.542 504.104 259.491 503.153 257.537 502.046C251.023 498.407 245.6 493.289 241.772 487.17C237.944 481.05 235.836 474.127 235.643 467.043C235.567 464.913 235.685 462.782 235.998 460.672C236.09 459.924 236.234 459.349 236.3 458.956C236.336 458.757 236.388 458.56 236.457 458.368C236.446 459.148 236.38 459.925 236.26 460.696C236.051 462.802 236.003 464.918 236.116 467.03C236.442 474.012 238.586 480.815 242.362 486.85C246.138 492.885 251.432 497.97 257.787 501.666C259.708 502.79 261.708 503.793 263.772 504.667C265.229 505.255 266.056 505.586 266.043 505.635Z" fill="#FAFAFA"/>
<g opacity="0.2">
<path opacity="0.2" d="M269.482 477.334C268.461 477.009 267.361 476.969 266.317 477.219C265.272 477.47 264.329 477.999 263.602 478.743C262.892 479.5 262.374 480.396 262.086 481.365C261.797 482.334 261.746 483.352 261.935 484.342C262.132 486.259 263.015 488.059 264.442 489.451C265.625 490.52 267.142 491.211 268.773 491.423C269.792 491.402 270.785 491.12 271.644 490.608C272.502 490.096 273.194 489.373 273.643 488.52C274.209 487.54 274.55 486.46 274.645 485.351C274.74 484.241 274.587 483.125 274.196 482.073C273.805 481.022 273.184 480.058 272.372 479.242C271.561 478.426 270.577 477.776 269.482 477.334Z" fill="black"/>
</g>
<path d="M267.448 477.077C266.502 478.142 265.862 479.414 265.588 480.773C265.314 482.133 265.414 483.535 265.88 484.848C266.346 486.162 267.162 487.343 268.251 488.281C269.341 489.219 270.668 489.883 272.107 490.211C271.517 490.705 270.81 491.062 270.043 491.251C269.276 491.441 268.472 491.458 267.697 491.301C265.77 490.703 264.114 489.518 262.995 487.936C261.876 486.354 261.359 484.467 261.528 482.578C261.61 481.029 262.286 479.559 263.431 478.437C264.543 477.535 265.975 477.05 267.448 477.077Z" fill="#BC6C25"/>
<g opacity="0.4">
<path opacity="0.4" d="M267.448 477.077C266.502 478.142 265.862 479.414 265.588 480.773C265.314 482.133 265.414 483.535 265.88 484.848C266.346 486.162 267.162 487.343 268.251 488.281C269.341 489.219 270.668 489.883 272.107 490.211C271.517 490.705 270.81 491.062 270.043 491.251C269.276 491.441 268.472 491.458 267.697 491.301C265.77 490.703 264.114 489.518 262.995 487.936C261.876 486.354 261.359 484.467 261.528 482.578C261.61 481.029 262.286 479.559 263.431 478.437C264.543 477.535 265.975 477.05 267.448 477.077Z" fill="black"/>
</g>
<g opacity="0.2">
<path opacity="0.2" d="M250.135 470.363C249.148 470.056 248.088 470.022 247.082 470.266C246.075 470.509 245.166 471.02 244.464 471.735C243.779 472.465 243.278 473.33 242.998 474.265C242.719 475.2 242.668 476.182 242.85 477.138C243.067 478.975 243.92 480.695 245.278 482.039C246.424 483.068 247.89 483.732 249.465 483.938C250.446 483.919 251.402 483.648 252.228 483.155C253.055 482.662 253.72 481.967 254.151 481.144C254.695 480.197 255.022 479.155 255.113 478.084C255.204 477.013 255.056 475.935 254.679 474.92C254.301 473.905 253.703 472.974 252.921 472.185C252.139 471.397 251.19 470.768 250.135 470.338" fill="black"/>
</g>
<path d="M248.179 470.142C247.261 471.169 246.64 472.396 246.373 473.709C246.106 475.022 246.203 476.377 246.654 477.646C247.104 478.914 247.895 480.054 248.949 480.958C250.004 481.862 251.288 482.499 252.681 482.811C252.11 483.289 251.426 483.634 250.684 483.819C249.943 484.005 249.166 484.024 248.415 483.876C246.556 483.296 244.959 482.149 243.881 480.621C242.803 479.093 242.306 477.271 242.469 475.447C242.544 473.958 243.192 472.545 244.293 471.466C245.382 470.579 246.787 470.107 248.231 470.142" fill="#BC6C25"/>
<g opacity="0.4">
<path opacity="0.4" d="M248.179 470.142C247.261 471.169 246.64 472.396 246.373 473.709C246.106 475.022 246.203 476.377 246.654 477.646C247.104 478.914 247.895 480.054 248.949 480.958C250.004 481.862 251.288 482.499 252.681 482.811C252.11 483.289 251.426 483.634 250.684 483.819C249.943 484.005 249.166 484.024 248.415 483.876C246.556 483.296 244.959 482.149 243.881 480.621C242.803 479.093 242.306 477.271 242.469 475.447C242.544 473.958 243.192 472.545 244.293 471.466C245.382 470.579 246.787 470.107 248.231 470.142" fill="black"/>
</g>
<path d="M299.935 436.646C299.935 436.646 300.066 436.646 300.118 436.56H300.21L299.935 436.646Z" fill="#263238"/>
<path d="M309.858 440.469C309.234 438.902 308.027 437.598 306.458 436.793C305.212 436.211 303.835 435.913 302.442 435.923H302.323C301.548 435.968 300.794 436.178 300.118 436.536C298.661 437.213 297.413 438.228 296.494 439.482C295.575 440.737 295.015 442.19 294.868 443.703C294.776 445.639 295.3 447.556 296.375 449.213C297.45 450.87 299.026 452.193 300.906 453.015C302.146 453.61 303.562 453.808 304.935 453.578C306.296 453.215 307.484 452.434 308.309 451.361C309.565 449.83 310.368 448.019 310.64 446.108C310.912 444.197 310.642 442.252 309.858 440.469Z" fill="#263238"/>
<path d="M259.362 424.726C259.416 424.696 259.473 424.671 259.533 424.652H259.611L259.362 424.726Z" fill="#263238"/>
<path d="M267.946 428.07C267.418 426.691 266.368 425.541 264.993 424.836C263.919 424.33 262.731 424.069 261.528 424.076H261.383C260.713 424.118 260.062 424.302 259.48 424.615C258.214 425.2 257.131 426.078 256.333 427.166C255.536 428.253 255.051 429.514 254.925 430.827C254.847 432.503 255.305 434.163 256.24 435.596C257.175 437.029 258.545 438.171 260.176 438.876C261.233 439.46 262.491 439.639 263.686 439.373C264.881 439.108 265.919 438.42 266.581 437.455C267.659 436.135 268.352 434.576 268.591 432.931C268.83 431.286 268.608 429.611 267.946 428.07Z" fill="#263238"/>
<path d="M270.572 448.543C270.848 448.559 271.122 448.609 271.385 448.69C272.158 448.873 272.921 449.094 273.669 449.351C276.432 450.296 279.032 451.613 281.387 453.259C284.912 455.692 287.91 458.727 290.221 462.203C293.025 466.473 294.89 471.221 295.708 476.17C296.545 481.11 296.483 486.147 295.524 491.068C294.829 495.141 292.944 498.956 290.077 502.095C288.105 504.173 285.55 505.697 282.7 506.493C281.672 506.808 280.591 506.945 279.51 506.897C280.564 506.763 281.604 506.55 282.621 506.26C285.374 505.389 287.826 503.845 289.722 501.788C292.462 498.688 294.254 494.955 294.907 490.982C295.825 486.122 295.864 481.153 295.025 476.28C294.224 471.412 292.409 466.738 289.683 462.522C287.434 459.088 284.523 456.072 281.099 453.627C278.791 451.98 276.262 450.621 273.577 449.584C271.7 448.898 270.572 448.604 270.572 448.543Z" fill="#263238"/>
<path d="M258.036 434.049C257.971 434.049 257.63 433.829 257.275 433.253C256.849 432.496 256.62 431.657 256.606 430.802C256.61 429.948 256.835 429.108 257.262 428.352C257.616 427.776 257.945 427.507 258.023 427.556C257.639 428.619 257.392 429.721 257.288 430.839C257.408 431.932 257.659 433.009 258.036 434.049Z" fill="#FAFAFA"/>
<path d="M297.611 447.587C297.532 447.587 297.204 447.305 296.916 446.656C296.561 445.794 296.466 444.857 296.64 443.948C296.789 443.042 297.207 442.193 297.848 441.498C298.346 440.959 298.766 440.763 298.819 440.824C298.135 441.825 297.626 442.921 297.309 444.071C297.197 445.25 297.299 446.439 297.611 447.587Z" fill="#FAFAFA"/>
<path d="M322.511 512.325C322.446 512.423 320.857 511.394 318.075 510.095C314.429 508.453 310.661 507.061 306.799 505.929C302.271 504.557 298.149 503.381 295.196 502.401C293.726 501.923 292.571 501.507 291.731 501.176C291.302 501.038 290.892 500.853 290.51 500.625C292.149 500.993 293.766 501.443 295.354 501.972C298.32 502.842 302.468 503.945 307.009 505.329C310.908 506.46 314.687 507.924 318.298 509.703C318.993 510.034 319.61 510.389 320.122 510.695C320.578 510.947 321.016 511.226 321.435 511.528C321.829 511.749 322.191 512.017 322.511 512.325Z" fill="#263238"/>
<path d="M415.64 472.862C415.288 473.467 414.884 474.045 414.433 474.59C413.645 475.68 412.398 477.212 410.81 479.049C406.585 483.789 401.996 488.236 397.08 492.355C391.344 497.255 386.002 501.409 382.221 504.545L377.758 508.221C377.238 508.704 376.676 509.146 376.078 509.544C376.531 509.007 377.032 508.507 377.575 508.049C378.572 507.106 380.056 505.783 381.906 504.165C385.608 500.943 390.898 496.68 396.607 491.84C401.499 487.736 406.115 483.354 410.429 478.719C412.07 476.93 413.369 475.447 414.222 474.406C414.652 473.858 415.126 473.342 415.64 472.862Z" fill="#263238"/>
<g opacity="0.2">
<path opacity="0.2" d="M393.326 495.552C400.388 496.091 408.408 494.07 413.422 489.426C415.938 487.035 417.638 484.001 418.304 480.707C418.97 477.413 418.573 474.009 417.163 470.926C413.041 476.415 408.395 482.247 402.724 486.731C399.154 489.561 396.778 492.992 393.326 495.589" fill="black"/>
</g>
<g opacity="0.5">
<path opacity="0.5" d="M368.176 341.463C377.365 354.082 396.2 358.076 405.31 370.72C408.841 375.621 410.56 381.404 412.267 387.088L433.268 457.817C434.135 442.49 430.184 427.323 426.246 412.413C422.378 397.711 418.497 383.009 414.603 368.307C413.961 365.018 412.68 361.866 410.823 359.008C408.749 356.226 405.664 354.278 402.658 352.392C391.869 345.629 380.764 338.743 368.111 336.048" fill="black"/>
</g>
<g opacity="0.3">
<path opacity="0.3" d="M303.754 379.664C304.332 381.379 301.811 383.719 297.887 386.623C295.905 388.069 293.595 389.723 291.048 391.524C288.502 393.325 285.798 395.297 282.949 397.429C280.101 399.561 277.528 401.68 275.074 403.555C272.619 405.429 270.48 407.304 268.511 408.811C264.665 411.812 261.712 413.638 260.018 412.756C258.325 411.874 258.443 408.394 260.688 403.518C262.03 400.689 263.736 398.023 265.768 395.579C270.74 389.563 277.138 384.702 284.459 381.379C287.439 380.027 290.581 379.012 293.818 378.353C299.449 377.336 303.203 378.022 303.754 379.664Z" fill="white"/>
</g>
<path d="M268.642 476.354C267.678 476.679 266.679 476.905 265.662 477.028C264.696 477.339 263.697 477.557 262.683 477.677C263.457 476.995 264.447 476.565 265.505 476.452C266.514 476.113 267.611 476.079 268.642 476.354Z" fill="#FAFAFA"/>
<path d="M248.717 469.603C247.804 469.805 246.879 469.957 245.947 470.057C244.464 470.363 243.322 470.939 243.243 470.779C243.165 470.62 244.162 469.775 245.79 469.432C246.265 469.278 246.769 469.213 247.272 469.243C247.774 469.272 248.266 469.395 248.717 469.603Z" fill="#FAFAFA"/>
<path d="M337.081 526.573C336.897 526.659 335.151 523.915 332.723 520.693C330.295 517.471 328.129 515.008 328.273 514.885C330.212 516.468 331.9 518.3 333.288 520.325C334.856 522.234 336.132 524.337 337.081 526.573Z" fill="#FAFAFA"/>
<path d="M258.89 397.992C259.073 398.102 256.488 401.668 254.243 406.446C251.999 411.224 250.922 415.402 250.712 415.353C250.742 414.415 250.919 413.486 251.237 412.596C251.837 410.402 252.632 408.259 253.613 406.189C254.586 404.115 255.741 402.119 257.065 400.222C257.569 399.409 258.182 398.66 258.89 397.992Z" fill="#FAFAFA"/>
<path d="M322.524 374.273C319.997 374.043 317.517 373.478 315.161 372.595C312.73 371.903 310.412 370.906 308.27 369.63C308.361 369.458 311.459 370.708 315.384 371.982C319.309 373.256 322.577 374.089 322.524 374.273Z" fill="#FAFAFA"/>
<path d="M424.907 354.413C421.838 358.324 417.325 361.035 412.24 362.021C414.543 361.056 416.79 359.981 418.974 358.799C421.03 357.432 423.01 355.968 424.907 354.413Z" fill="#EB996E"/>
<path d="M463.353 346.217C456.291 331.025 385.752 277.093 385.752 277.093L345.98 325.291C346.558 324.568 410.862 361.127 410.862 361.127L429.829 441.841L433.098 456.249C433.098 456.249 424.566 463.196 424.92 470.522C425.143 475.423 413.107 485.972 413.107 485.972C410.245 483.754 408.408 483.129 406.964 483.386L394.166 494.572L397.211 497.17C400.606 500.061 405.074 501.603 409.668 501.47L431.549 500.845C434.669 500.761 437.632 499.543 439.805 497.451C446.539 490.995 460.741 476.55 461.017 469.591C461.187 465.695 461.214 461.983 461.2 458.993C461.135 458.957 470.402 361.409 463.353 346.217Z" fill="#FFBE9D"/>
<path d="M442.404 475.288C442.042 475.593 441.63 475.841 441.183 476.023C440.383 476.44 439.149 476.93 437.718 477.665C436.07 478.553 434.614 479.72 433.426 481.108C431.923 482.857 430.154 484.393 428.175 485.665C424.517 487.938 420.174 489.055 415.784 488.851C415.015 488.85 414.251 488.725 413.527 488.483C413.234 488.387 412.979 488.213 412.792 487.982C412.605 487.751 412.495 487.473 412.477 487.184C412.465 487.004 412.5 486.824 412.58 486.659C412.66 486.495 412.783 486.351 412.936 486.241C413.159 486.119 413.304 486.143 413.304 486.155C413.304 486.168 413.185 486.155 413.015 486.339C412.901 486.448 412.817 486.58 412.769 486.725C412.721 486.869 412.711 487.023 412.739 487.172C412.777 487.403 412.885 487.62 413.05 487.795C413.215 487.971 413.431 488.099 413.671 488.165C414.36 488.357 415.079 488.44 415.798 488.41C420.063 488.487 424.252 487.35 427.808 485.151C429.733 483.914 431.461 482.429 432.94 480.74C434.193 479.32 435.731 478.142 437.469 477.273C438.965 476.575 440.212 476.158 441.052 475.803C441.486 475.595 441.938 475.423 442.404 475.288Z" fill="#EB996E"/>
<path d="M432.402 485.922C432.494 486.082 430.683 487.074 428.74 488.618C426.797 490.162 425.432 491.644 425.275 491.534C425.99 490.198 427.033 489.039 428.32 488.152C429.464 487.107 430.866 486.341 432.402 485.922Z" fill="#EB996E"/>
<path d="M441.21 452.488C441.21 452.671 439.28 452.782 437.167 453.713C435.053 454.644 433.715 455.955 433.57 455.82C434.396 454.665 435.544 453.742 436.89 453.15C438.236 452.559 439.729 452.321 441.21 452.463V452.488Z" fill="#EB996E"/>
<path d="M427.558 492.22C427.558 492.33 426.154 491.693 423.791 491.178C419.861 490.272 415.735 490.434 411.899 491.644C411.471 491.795 411.033 491.917 410.587 492.012C410.097 492.095 409.592 491.994 409.182 491.73L405.769 489.328C404.669 488.649 403.636 487.878 402.685 487.025C403.864 487.584 404.992 488.231 406.058 488.961L409.589 491.203C410.153 491.607 410.902 491.301 411.729 491.019C412.588 490.741 413.465 490.512 414.354 490.333C417.53 489.748 420.809 489.874 423.923 490.701C424.856 490.95 425.766 491.273 426.64 491.669C427.257 491.999 427.585 492.183 427.558 492.22Z" fill="#EB996E"/>
<path d="M279.143 305.014C270.729 302.772 267.001 301.805 267.001 301.805V298.203H270.348C273.709 298.203 278.539 294.294 278.539 294.294L285.719 284.04L286.638 277.46C285.877 269.35 275.402 272.56 275.402 272.56C274.903 269.73 261.488 266.887 251.408 265.135C248.031 264.546 244.557 264.665 241.236 265.483C237.915 266.301 234.83 267.797 232.204 269.864L222.531 277.485L193.548 301.143L118.73 360.135L69.5471 346.584C69.5471 346.584 53.901 391.242 51.3676 407.242C46.4717 437.982 91.7432 458.466 111.747 442.65C127.262 430.398 217.753 339.393 232.743 324.311H232.861C242.049 323.22 257.643 314.509 257.643 314.509L265.636 315.392C265.636 315.392 286.874 319.177 289.394 315.294C291.284 312.292 287.557 307.256 279.143 305.014Z" fill="#FFBE9D"/>
<path d="M235.578 296.095C235.578 296.095 235.788 296.377 236.037 296.953C236.401 297.766 236.691 298.606 236.904 299.465C237.617 302.304 237.733 305.246 237.245 308.126C236.762 311.009 235.673 313.773 234.042 316.262C233.558 317.015 233.004 317.729 232.388 318.393C231.955 318.871 231.693 319.116 231.653 319.079C231.614 319.043 232.493 317.952 233.622 316.041C236.602 311.022 237.601 305.186 236.444 299.55C235.985 297.406 235.46 296.132 235.578 296.095Z" fill="#EB996E"/>
<path d="M240.999 271.077C241.266 271.013 241.538 270.968 241.813 270.943C242.364 270.869 243.125 270.771 244.189 270.685C247.122 270.385 250.083 270.413 253.009 270.771C255.04 271.05 257.016 271.603 258.876 272.413C261.037 273.331 262.945 274.697 264.455 276.407C266.176 278.31 267.129 280.716 267.146 283.207C267.121 284.527 266.766 285.823 266.109 286.992C265.409 288.171 264.524 289.244 263.484 290.178C261.521 291.949 259.37 293.529 257.065 294.895C255.975 295.58 254.819 296.171 253.613 296.659C252.988 296.891 252.316 296.996 251.644 296.965C251.294 296.95 250.952 296.865 250.64 296.717C250.328 296.57 250.053 296.362 249.833 296.108C249.428 295.604 249.228 294.984 249.268 294.356C249.282 293.783 249.393 293.217 249.596 292.677C249.975 291.676 250.491 290.724 251.132 289.847C252.289 288.264 253.838 286.966 255.648 286.061L255.726 286.49L246.774 284.897L244.346 284.432C244.058 284.393 243.776 284.324 243.506 284.223C243.797 284.223 244.087 284.248 244.372 284.297L246.814 284.652L255.805 286.037L256.501 286.147L255.884 286.466C254.167 287.359 252.701 288.619 251.605 290.141C250.998 290.983 250.517 291.898 250.174 292.861C249.951 293.317 249.848 293.817 249.876 294.318C249.903 294.82 250.059 295.307 250.331 295.74C250.738 296.091 251.252 296.313 251.801 296.374C252.35 296.436 252.906 296.334 253.39 296.083C254.549 295.612 255.657 295.037 256.698 294.368C258.962 293.025 261.073 291.469 262.998 289.724C264.001 288.9 264.82 287.899 265.408 286.778C265.996 285.658 266.341 284.44 266.424 283.194C266.412 280.848 265.526 278.578 263.917 276.774C262.469 275.124 260.644 273.796 258.575 272.891C256.772 272.082 254.853 271.521 252.878 271.224C249.993 270.83 247.07 270.731 244.162 270.93L241.773 271.065C241.517 271.1 241.257 271.104 240.999 271.077Z" fill="#EB996E"/>
<path d="M275.507 272.94C275.639 273.37 275.714 273.815 275.73 274.263C275.859 275.484 275.912 276.711 275.888 277.938C275.896 282.001 274.77 285.996 272.619 289.528C269.994 293.633 265.886 296.279 262.486 296.696C261.809 296.782 261.12 296.716 260.476 296.503C259.832 296.29 259.252 295.936 258.785 295.47C258.541 295.212 258.354 294.913 258.233 294.588C258.18 294.481 258.157 294.363 258.168 294.245C258.394 294.625 258.667 294.978 258.981 295.299C259.445 295.685 259.997 295.968 260.595 296.125C261.193 296.282 261.822 296.31 262.434 296.205C265.558 295.728 269.522 293.118 272.029 289.173C274.114 285.722 275.272 281.85 275.402 277.889C275.573 274.839 275.389 272.94 275.507 272.94Z" fill="#EB996E"/>
<path d="M256.934 307.93C256.855 307.845 257.538 307.293 258.351 306.191C259.396 304.773 260.046 303.135 260.242 301.425C260.409 299.708 260.106 297.979 259.362 296.402C258.798 295.176 258.246 294.515 258.338 294.453C258.976 294.912 259.478 295.515 259.795 296.205C260.721 297.822 261.113 299.658 260.924 301.483C260.735 303.307 259.972 305.039 258.732 306.46C258.272 307.081 257.654 307.586 256.934 307.93Z" fill="#EB996E"/>
<path d="M244.175 284.726C244.648 285.546 244.797 286.496 244.595 287.409C244.511 288.415 244.198 289.392 243.677 290.276C243.082 291.355 242.331 292.352 241.445 293.241C239.776 294.796 237.765 295.996 235.552 296.757C234.68 297.152 233.758 297.44 232.808 297.614C233.605 297.118 234.459 296.708 235.355 296.389C237.433 295.53 239.328 294.327 240.946 292.836C241.795 291.985 242.527 291.038 243.125 290.018C243.637 289.209 243.976 288.314 244.123 287.384C244.239 286.502 244.256 285.611 244.175 284.726Z" fill="#EB996E"/>
<path d="M299.987 288.328L263.064 307.109C263.064 307.109 282.818 311.679 300.761 329.383C310.516 339.026 318.15 350.36 323.233 362.744L359.986 339.907C359.986 339.907 340.205 298.08 299.987 288.328Z" fill="#606C38"/>
<path d="M269.574 306.411L299.383 290.484H299.475H299.567C304.838 291.809 309.906 293.756 314.649 296.279C320.039 299.19 325.066 302.649 329.639 306.595C334.709 310.935 339.356 315.687 343.526 320.795C348.047 326.241 352.057 332.041 355.51 338.131L355.654 338.388L355.392 338.547L353.462 339.772L325.084 357.476L324.743 357.684L324.598 357.341C320.586 348.073 315.07 339.437 308.243 331.735C302.819 325.698 296.544 320.374 289.591 315.906C285.055 312.968 280.219 310.457 275.153 308.408C273.367 307.697 271.976 307.183 271.018 306.901L269.942 306.558L269.574 306.436L269.955 306.509L271.057 306.803C272.029 307.085 273.433 307.538 275.231 308.212C280.371 310.188 285.279 312.652 289.88 315.563C296.904 320.007 303.241 325.329 308.716 331.38C315.619 339.108 321.198 347.787 325.254 357.108L324.769 356.974L353.134 339.245L355.064 338.02L354.945 338.425C351.514 332.373 347.535 326.606 343.053 321.187C338.915 316.103 334.303 311.372 329.271 307.048C324.724 303.119 319.728 299.667 314.373 296.757C309.682 294.232 304.668 292.272 299.449 290.925H299.633L269.574 306.411Z" fill="white"/>
<path d="M330.019 317.732C329.048 323.037 321.855 326.247 313.94 324.899C306.025 323.551 300.368 318.161 301.339 312.856C302.31 307.551 309.503 304.341 317.418 305.688C325.333 307.036 330.951 312.427 330.019 317.732Z" fill="#FAFAFA"/>
<path d="M312.811 319.435L311.498 320.758L310.028 319.422L311.262 318.197C310.206 317.162 309.439 315.9 309.031 314.522L311.512 313.517C311.843 314.798 312.547 315.968 313.546 316.899C314.557 317.817 315.213 317.891 315.594 317.499C316.906 316.176 311.065 312.708 314.058 309.621C315.371 308.322 317.366 308.09 319.571 309.621L320.884 308.322L322.354 309.658L321.107 310.883C321.935 311.736 322.553 312.748 322.918 313.848L320.477 314.914C320.149 313.86 319.549 312.896 318.731 312.108C317.707 311.189 317.011 311.189 316.618 311.594C315.384 312.819 321.172 316.335 318.206 319.398C316.985 320.66 314.99 320.905 312.811 319.435Z" fill="#455A64"/>
<path d="M278.001 301.988C278.001 301.988 284.262 304.953 278.25 309.339L269.062 306.007L278.001 301.988Z" fill="#FAFAFA"/>
<path d="M294.815 293.167C294.815 293.167 300.853 299.121 306.629 292.922L299.515 290.705L294.815 293.167Z" fill="#FAFAFA"/>
<path d="M321.159 349.378C321.159 349.378 329.284 343.252 334.023 351.534L324.953 357.194L321.159 349.378Z" fill="#FAFAFA"/>
<path d="M351.139 331.527C351.139 331.527 345.272 334.957 349.249 342.027L355.261 338.278L351.139 331.527Z" fill="#FAFAFA"/>
<path d="M329.389 351.399C329.374 351.852 329.216 352.29 328.935 352.66C328.654 353.029 328.262 353.312 327.809 353.475C327.357 353.638 326.863 353.672 326.389 353.574C325.915 353.476 325.483 353.25 325.146 352.924C324.809 352.598 324.583 352.187 324.496 351.741C324.408 351.296 324.463 350.836 324.654 350.42C324.845 350.003 325.163 349.649 325.569 349.4C325.974 349.152 326.449 349.02 326.935 349.022C327.263 349.027 327.588 349.093 327.889 349.215C328.191 349.337 328.463 349.514 328.691 349.735C328.92 349.955 329.099 350.216 329.218 350.502C329.338 350.788 329.396 351.093 329.389 351.399Z" fill="#455A64"/>
<path d="M354.014 336.783C353.996 337.232 353.836 337.666 353.556 338.032C353.276 338.397 352.886 338.677 352.436 338.838C351.987 338.998 351.496 339.031 351.026 338.933C350.556 338.836 350.128 338.611 349.794 338.287C349.459 337.964 349.235 337.556 349.147 337.114C349.06 336.672 349.113 336.216 349.301 335.802C349.49 335.388 349.804 335.035 350.205 334.787C350.607 334.539 351.078 334.407 351.559 334.406C351.888 334.411 352.212 334.476 352.514 334.599C352.815 334.721 353.088 334.897 353.316 335.118C353.544 335.339 353.723 335.6 353.843 335.886C353.962 336.171 354.021 336.476 354.014 336.783Z" fill="#455A64"/>
<path d="M303.295 292.934C303.295 293.78 301.982 294.466 300.473 294.466C298.963 294.466 297.664 293.78 297.664 292.934C297.664 292.089 298.976 291.403 300.486 291.403C301.995 291.403 303.295 292.077 303.295 292.934Z" fill="#455A64"/>
<path d="M279.301 305.639C279.428 306.167 279.378 306.718 279.155 307.217C278.933 307.717 278.549 308.139 278.058 308.426C277.568 308.713 276.993 308.851 276.415 308.821C275.836 308.79 275.283 308.592 274.83 308.255C274.377 307.917 274.048 307.457 273.887 306.938C273.727 306.418 273.743 305.865 273.934 305.354C274.125 304.844 274.482 304.401 274.954 304.088C275.426 303.775 275.991 303.606 276.57 303.606C277.219 303.546 277.868 303.726 278.377 304.106C278.887 304.485 279.218 305.035 279.301 305.639Z" fill="#455A64"/>
<path d="M301.93 304.328C301.93 305.627 300.197 306.681 298.057 306.681C295.918 306.681 294.198 305.664 294.198 304.328C294.198 302.993 295.931 301.976 298.071 301.976C300.21 301.976 301.93 303.103 301.93 304.328Z" fill="#FAFAFA"/>
<path d="M333.025 335.84C331.279 336.587 329.087 335.558 328.221 333.548C327.74 332.695 327.628 331.702 327.909 330.774C328.19 329.846 328.842 329.054 329.731 328.562C331.476 327.815 333.668 328.844 334.535 330.865C335.015 331.717 335.126 332.708 334.845 333.634C334.564 334.56 333.913 335.35 333.025 335.84Z" fill="#FAFAFA"/>
<path d="M278.552 294.294L293.713 309.229C293.713 309.229 299.777 315.71 303.859 312.647C307.941 309.584 302.205 303.875 300.998 302.209C299.79 300.542 284.931 283.721 284.931 283.721L278.552 294.294Z" fill="#FFBE9D"/>
<path d="M286.323 280.866C286.263 281.75 286.064 282.622 285.732 283.451C285.107 285.497 284.226 287.467 283.107 289.32C281.965 291.185 280.506 292.865 278.789 294.294C278.113 294.92 277.321 295.427 276.452 295.789C277.082 295.144 277.753 294.534 278.46 293.963C280.028 292.496 281.391 290.849 282.516 289.063C285.128 284.726 286.139 280.793 286.323 280.866Z" fill="#EB996E"/>
<path d="M145.323 339.16C145.111 339.398 144.874 339.615 144.615 339.809L142.501 341.573L134.626 347.956C127.945 353.31 118.665 360.674 108.374 368.699C98.083 376.723 88.5142 383.964 81.5574 388.963C78.0922 391.511 75.2438 393.508 73.2487 394.88L70.9385 396.412C70.6818 396.605 70.4047 396.773 70.1116 396.914C70.3456 396.698 70.5956 396.497 70.8598 396.314L73.0912 394.672C75.0338 393.251 77.8297 391.205 81.2555 388.62C88.1204 383.462 97.5186 376.233 107.862 368.209C118.205 360.184 127.472 352.918 134.298 347.613L142.318 341.377L144.523 339.711C144.771 339.505 145.039 339.321 145.323 339.16Z" fill="#EB996E"/>
</svg>

